<svg width="15" height="16" viewBox="0 0 15 16" fill="none" xmlns="http://www.w3.org/2000/svg">
<g clip-path="url(#clip0_1247_8487)">
<path d="M7.31771 14.555L5.48817 12.7254H3.04879C2.71338 12.7254 2.42634 12.6061 2.18769 12.3675C1.94904 12.1288 1.82951 11.8416 1.8291 11.5057V2.96792C1.8291 2.6325 1.94863 2.34547 2.18769 2.10682C2.42675 1.86817 2.71378 1.74864 3.04879 1.74823H11.5866C11.922 1.74823 12.2093 1.86776 12.4483 2.10682C12.6874 2.34588 12.8067 2.63291 12.8063 2.96792V11.5057C12.8063 11.8412 12.687 12.1284 12.4483 12.3675C12.2097 12.6065 11.9224 12.7258 11.5866 12.7254H9.14724L7.31771 14.555ZM7.31771 7.84668C7.90722 7.84668 8.41034 7.63832 8.82707 7.22159C9.2438 6.80486 9.45216 6.30174 9.45216 5.71222C9.45216 5.1227 9.2438 4.61958 8.82707 4.20286C8.41034 3.78613 7.90722 3.57776 7.31771 3.57776C6.72819 3.57776 6.22507 3.78613 5.80834 4.20286C5.39161 4.61958 5.18325 5.1227 5.18325 5.71222C5.18325 6.30174 5.39161 6.80486 5.80834 7.22159C6.22507 7.63832 6.72819 7.84668 7.31771 7.84668ZM3.04879 11.5057H11.5866V10.8044C11.0378 10.2657 10.4001 9.84148 9.67354 9.53168C8.94701 9.22188 8.16173 9.06677 7.31771 9.06637C6.47368 9.06596 5.6884 9.22107 4.96187 9.53168C4.23535 9.84229 3.59765 10.2665 3.04879 10.8044V11.5057Z" fill="#379E23"/>
</g>
<defs>
<clipPath id="clip0_1247_8487">
<rect width="14.6363" height="14.6363" fill="white" transform="translate(0 0.528564)"/>
</clipPath>
</defs>
</svg>
