<svg width="30" height="30" viewBox="0 0 30 30" fill="none" xmlns="http://www.w3.org/2000/svg">
<path d="M16.0888 7.90741C17.5887 8.15878 18.9512 8.86719 20.0388 9.95264C21.1265 11.0381 21.8306 12.3978 22.0882 13.8946M16.3179 3C18.9855 3.45132 21.4185 4.71388 23.3534 6.63913C25.2883 8.5701 26.5478 10.9981 27 13.6603M24.9162 24.2521C24.9162 24.2521 23.4679 25.6746 23.1129 26.0916C22.5347 26.7086 21.8535 27 20.9605 27C20.8746 27 20.783 27 20.6971 26.9943C18.9969 26.8857 17.4169 26.223 16.2319 25.6575C12.9918 24.0921 10.1467 21.8698 7.7824 19.0533C5.8303 16.7053 4.52509 14.5344 3.66067 12.2035C3.12828 10.781 2.93364 9.67269 3.01951 8.62723C3.07676 7.95881 3.33437 7.40466 3.80951 6.93049L5.76161 4.98238C6.04211 4.71959 6.33979 4.57676 6.63175 4.57676C6.9924 4.57676 7.28436 4.79385 7.46754 4.97667C7.47327 4.98238 7.47899 4.98809 7.48472 4.99381C7.83392 5.31944 8.16595 5.65651 8.51515 6.01642C8.69261 6.19923 8.8758 6.38205 9.05899 6.57057L10.6218 8.1302C11.2286 8.73577 11.2286 9.29564 10.6218 9.90121C10.4558 10.0669 10.2955 10.2326 10.1295 10.3925C9.64863 10.8838 10.0264 10.5069 9.52833 10.9525C9.51688 10.9639 9.50543 10.9696 9.49971 10.981C9.00739 11.4723 9.09899 11.9522 9.20203 12.2779C9.20775 12.295 9.21348 12.3121 9.2192 12.3293C9.62565 13.3119 10.1981 14.2374 11.0683 15.34L11.074 15.3457C12.654 17.2881 14.3198 18.802 16.1574 19.9617C16.3922 20.1103 16.6326 20.2302 16.8616 20.3445C17.0677 20.4473 17.2623 20.5445 17.4283 20.6473C17.4512 20.6587 17.4741 20.6759 17.497 20.6873C17.6916 20.7844 17.8748 20.8301 18.0637 20.8301C18.5389 20.8301 18.8366 20.533 18.9339 20.4359L20.056 19.3161C20.2506 19.1219 20.5598 18.8876 20.9204 18.8876C21.2753 18.8876 21.5673 19.1104 21.7448 19.3047C21.7505 19.3104 21.7505 19.3104 21.7562 19.3161L24.9105 22.4639C25.5001 23.0466 24.9162 24.2521 24.9162 24.2521Z" stroke="black" stroke-width="2" stroke-linecap="round" stroke-linejoin="round"/>
</svg>
