<svg width="37" height="37" viewBox="0 0 37 37" fill="none" xmlns="http://www.w3.org/2000/svg">
<path d="M8.21373 18.5001V11.7372C8.23381 10.4079 8.51601 9.09557 9.04414 7.87547C9.57228 6.65537 10.336 5.55147 11.2915 4.62703C12.247 3.70259 13.3755 2.97577 14.6124 2.48822C15.8492 2.00067 17.1702 1.76197 18.4994 1.7858C19.8287 1.76197 21.1497 2.00067 22.3865 2.48822C23.6234 2.97577 24.7519 3.70259 25.7074 4.62703C26.6629 5.55147 27.4266 6.65537 27.9547 7.87547C28.4829 9.09557 28.7651 10.4079 28.7852 11.7372V18.5001M23.6423 32.0001C25.0063 32.0001 26.3144 31.4583 27.2788 30.4938C28.2433 29.5293 28.7852 28.2212 28.7852 26.8572V21.0715M23.6423 32.0001C23.6423 32.8526 23.3037 33.6701 22.7009 34.2729C22.0981 34.8757 21.2805 35.2144 20.428 35.2144H16.5709C15.7184 35.2144 14.9008 34.8757 14.298 34.2729C13.6952 33.6701 13.3566 32.8526 13.3566 32.0001C13.3566 31.1476 13.6952 30.33 14.298 29.7272C14.9008 29.1244 15.7184 28.7858 16.5709 28.7858H20.428C21.2805 28.7858 22.0981 29.1244 22.7009 29.7272C23.3037 30.33 23.6423 31.1476 23.6423 32.0001ZM4.35659 14.6429H6.92801C7.26901 14.6429 7.59603 14.7784 7.83715 15.0195C8.07827 15.2606 8.21373 15.5877 8.21373 15.9287V23.6429C8.21373 23.9839 8.07827 24.311 7.83715 24.5521C7.59603 24.7932 7.26901 24.9287 6.92801 24.9287H4.35659C3.6746 24.9287 3.02055 24.6577 2.53831 24.1755C2.05607 23.6933 1.78516 23.0392 1.78516 22.3572V17.2144C1.78516 16.5324 2.05607 15.8783 2.53831 15.3961C3.02055 14.9139 3.6746 14.6429 4.35659 14.6429ZM32.6423 24.9287H30.0709C29.7299 24.9287 29.4029 24.7932 29.1617 24.5521C28.9206 24.311 28.7852 23.9839 28.7852 23.6429V15.9287C28.7852 15.5877 28.9206 15.2606 29.1617 15.0195C29.4029 14.7784 29.7299 14.6429 30.0709 14.6429H32.6423C33.3243 14.6429 33.9783 14.9139 34.4606 15.3961C34.9428 15.8783 35.2137 16.5324 35.2137 17.2144V22.3572C35.2137 23.0392 34.9428 23.6933 34.4606 24.1755C33.9783 24.6577 33.3243 24.9287 32.6423 24.9287Z" stroke="black" stroke-width="1.71429" stroke-linecap="round" stroke-linejoin="round"/>
</svg>
