<svg width="18" height="18" viewBox="0 0 18 18" fill="none" xmlns="http://www.w3.org/2000/svg">
<path opacity="0.2" d="M14.6375 2.79065H12.4248C12.1193 2.79065 11.8716 3.03832 11.8716 3.34384V5.55662C11.8716 5.86214 12.1193 6.10981 12.4248 6.10981H14.6375C14.9431 6.10981 15.1907 5.86214 15.1907 5.55662V3.34384C15.1907 3.03832 14.9431 2.79065 14.6375 2.79065Z" fill="#009379"/>
<path opacity="0.2" d="M3.5737 2.82193H5.78647C6.07472 2.82193 6.30839 3.0556 6.30839 3.34384V5.55662C6.30839 5.84486 6.07472 6.07853 5.78647 6.07853H3.5737C3.28546 6.07853 3.05179 5.84486 3.05179 5.55662V3.34384C3.05179 3.0556 3.28546 2.82193 3.5737 2.82193Z" fill="#009379" stroke="#009379" stroke-width="0.0625635"/>
<path opacity="0.2" d="M12.4248 11.673H14.6375C14.9258 11.673 15.1595 11.9067 15.1595 12.1949V14.4077C15.1595 14.6959 14.9258 14.9296 14.6375 14.9296H12.4248C12.1365 14.9296 11.9029 14.6959 11.9029 14.4077V12.1949C11.9029 11.9067 12.1365 11.673 12.4248 11.673Z" fill="#009379" stroke="#009379" stroke-width="0.0625635"/>
<path opacity="0.2" d="M3.5737 11.673H5.78647C6.07472 11.673 6.30839 11.9067 6.30839 12.1949V14.4077C6.30839 14.6959 6.07472 14.9296 5.78647 14.9296H3.5737C3.28546 14.9296 3.05179 14.6959 3.05179 14.4077V12.1949C3.05179 11.9067 3.28546 11.673 3.5737 11.673Z" fill="#009379" stroke="#009379" stroke-width="0.0625635"/>
<path d="M14.6375 2.79065H12.4248C12.1193 2.79065 11.8716 3.03832 11.8716 3.34384V5.55662C11.8716 5.86214 12.1193 6.10981 12.4248 6.10981H14.6375C14.9431 6.10981 15.1907 5.86214 15.1907 5.55662V3.34384C15.1907 3.03832 14.9431 2.79065 14.6375 2.79065Z" stroke="#009379" stroke-width="1.00102" stroke-linecap="round" stroke-linejoin="round"/>
<path d="M5.78647 2.79065H3.5737C3.26818 2.79065 3.02051 3.03832 3.02051 3.34384V5.55662C3.02051 5.86214 3.26818 6.10981 3.5737 6.10981H5.78647C6.09199 6.10981 6.33967 5.86214 6.33967 5.55662V3.34384C6.33967 3.03832 6.09199 2.79065 5.78647 2.79065Z" stroke="#009379" stroke-width="1.00102" stroke-linecap="round" stroke-linejoin="round"/>
<path d="M14.6375 11.6417H12.4248C12.1193 11.6417 11.8716 11.8894 11.8716 12.1949V14.4077C11.8716 14.7132 12.1193 14.9609 12.4248 14.9609H14.6375C14.9431 14.9609 15.1907 14.7132 15.1907 14.4077V12.1949C15.1907 11.8894 14.9431 11.6417 14.6375 11.6417Z" stroke="#009379" stroke-width="1.00102" stroke-linecap="round" stroke-linejoin="round"/>
<path d="M5.78647 11.6417H3.5737C3.26818 11.6417 3.02051 11.8894 3.02051 12.1949V14.4077C3.02051 14.7132 3.26818 14.9609 3.5737 14.9609H5.78647C6.09199 14.9609 6.33967 14.7132 6.33967 14.4077V12.1949C6.33967 11.8894 6.09199 11.6417 5.78647 11.6417Z" stroke="#009379" stroke-width="1.00102" stroke-linecap="round" stroke-linejoin="round"/>
<path d="M4.68018 11.6417V6.10974" stroke="#009379" stroke-width="1.00102" stroke-linecap="round" stroke-linejoin="round"/>
<path d="M11.8713 13.3013H6.33936" stroke="#009379" stroke-width="1.00102" stroke-linecap="round" stroke-linejoin="round"/>
<path d="M13.5312 6.10974V11.6417" stroke="#009379" stroke-width="1.00102" stroke-linecap="round" stroke-linejoin="round"/>
<path d="M6.33936 4.4502H11.8713" stroke="#009379" stroke-width="1.00102" stroke-linecap="round" stroke-linejoin="round"/>
</svg>
