<svg width="16" height="16" viewBox="0 0 16 16" fill="none" xmlns="http://www.w3.org/2000/svg">
<path d="M3.85069 13.2906L4.11953 12.9205L3.85069 13.2906ZM3.1761 12.616L3.54613 12.3471L3.1761 12.616ZM12.9886 12.616L12.6186 12.3471L12.9886 12.616ZM12.314 13.2906L12.5829 13.6606L12.314 13.2906ZM12.314 3.47807L12.5829 3.10803L12.314 3.47807ZM12.9886 4.15265L12.6186 4.42149L12.9886 4.15265ZM3.85069 3.47807L4.11953 3.8481L3.85069 3.47807ZM3.1761 4.15265L3.54613 4.42149L3.1761 4.15265ZM12.4841 10.2514L12.4126 9.79964L12.4841 10.2514ZM9.94943 12.7861L9.49768 12.7145L9.94943 12.7861ZM9.4545 3.50556C9.4545 3.75817 9.65928 3.96294 9.91189 3.96294C10.1645 3.96294 10.3693 3.75817 10.3693 3.50556H9.4545ZM10.3693 1.67603C10.3693 1.42342 10.1645 1.21864 9.91189 1.21864C9.65928 1.21864 9.4545 1.42342 9.4545 1.67603H10.3693ZM5.79544 3.50556C5.79544 3.75817 6.00021 3.96294 6.25282 3.96294C6.50543 3.96294 6.7102 3.75817 6.7102 3.50556H5.79544ZM6.7102 1.67603C6.7102 1.42342 6.50543 1.21864 6.25282 1.21864C6.00021 1.21864 5.79544 1.42342 5.79544 1.67603H6.7102ZM13.5533 10.2139L14.0104 10.2295L13.5533 10.2139ZM9.91189 13.8553L9.92755 14.3124L9.91189 13.8553ZM8.08235 13.4155C6.92879 13.4155 6.10035 13.4149 5.45883 13.3454C4.82586 13.2768 4.42933 13.1456 4.11953 12.9205L3.58184 13.6606C4.07357 14.0179 4.6495 14.1778 5.3603 14.2549C6.06253 14.3309 6.94916 14.3303 8.08235 14.3303V13.4155ZM2.13637 8.38432C2.13637 9.51751 2.13574 10.4041 2.21182 11.1064C2.28883 11.8172 2.4488 12.3931 2.80607 12.8848L3.54613 12.3471C3.32105 12.0373 3.18984 11.6408 3.12127 11.0078C3.05176 10.3663 3.05113 9.53788 3.05113 8.38432H2.13637ZM4.11953 12.9205C3.8995 12.7607 3.70599 12.5672 3.54613 12.3471L2.80607 12.8848C3.02235 13.1825 3.28415 13.4443 3.58184 13.6606L4.11953 12.9205ZM12.6186 12.3471C12.4587 12.5672 12.2652 12.7607 12.0452 12.9205L12.5829 13.6606C12.8806 13.4443 13.1424 13.1825 13.3586 12.8848L12.6186 12.3471ZM14.0283 8.38432C14.0283 7.25113 14.029 6.3645 13.9529 5.66226C13.8759 4.95146 13.7159 4.37554 13.3586 3.88381L12.6186 4.42149C12.8437 4.7313 12.9749 5.12783 13.0434 5.76079C13.1129 6.40232 13.1136 7.23075 13.1136 8.38432H14.0283ZM12.0452 3.8481C12.2652 4.00796 12.4587 4.20146 12.6186 4.42149L13.3586 3.88381C13.1424 3.58611 12.8806 3.32432 12.5829 3.10803L12.0452 3.8481ZM3.05113 8.38432C3.05113 7.23075 3.05176 6.40232 3.12127 5.76079C3.18984 5.12783 3.32105 4.7313 3.54613 4.42149L2.80607 3.88381C2.4488 4.37554 2.28883 4.95146 2.21182 5.66226C2.13574 6.3645 2.13637 7.25113 2.13637 8.38432H3.05113ZM3.58184 3.10803C3.28415 3.32432 3.02236 3.58611 2.80607 3.88381L3.54613 4.42149C3.70599 4.20146 3.8995 4.00796 4.11953 3.8481L3.58184 3.10803ZM12.4126 9.79964C10.9121 10.0373 9.73533 11.2141 9.49768 12.7145L10.4012 12.8576C10.5768 11.7486 11.4466 10.8788 12.5557 10.7031L12.4126 9.79964ZM6.7102 3.50556V2.91336H5.79544V3.50556H6.7102ZM6.7102 2.91336V1.67603H5.79544V2.91336H6.7102ZM8.08235 2.43833C7.37202 2.43833 6.76158 2.43827 6.23716 2.45624L6.26848 3.37047C6.7739 3.35316 7.36696 3.3531 8.08235 3.3531V2.43833ZM6.23716 2.45624C5.09465 2.49539 4.2549 2.61903 3.58184 3.10803L4.11953 3.8481C4.5498 3.53548 5.13726 3.40923 6.26848 3.37047L6.23716 2.45624ZM10.3693 3.50556V2.91336H9.4545V3.50556H10.3693ZM10.3693 2.91336V1.67603H9.4545V2.91336H10.3693ZM8.08235 3.3531C8.79775 3.3531 9.39081 3.35316 9.89623 3.37047L9.92755 2.45624C9.40313 2.43827 8.79269 2.43833 8.08235 2.43833V3.3531ZM9.89623 3.37047C11.0274 3.40923 11.6149 3.53548 12.0452 3.8481L12.5829 3.10803C11.9098 2.61903 11.0701 2.49539 9.92755 2.45624L9.89623 3.37047ZM13.5533 9.75647C13.0153 9.75647 12.6915 9.75547 12.4126 9.79964L12.5557 10.7031C12.7458 10.673 12.9817 10.6712 13.5533 10.6712L13.5533 9.75647ZM13.1136 8.38432C13.1136 9.09971 13.1135 9.69277 13.0962 10.1982L14.0104 10.2295C14.0284 9.70509 14.0283 9.09465 14.0283 8.38432H13.1136ZM13.0962 10.1982C13.0574 11.3294 12.9312 11.9169 12.6186 12.3471L13.3586 12.8848C13.8476 12.2118 13.9713 11.372 14.0104 10.2295L13.0962 10.1982ZM10.3693 13.8553C10.3693 13.2837 10.3711 13.0478 10.4012 12.8576L9.49768 12.7145C9.4535 12.9934 9.45451 13.3172 9.4545 13.8553L10.3693 13.8553ZM8.08235 14.3303C8.79269 14.3303 9.40313 14.3304 9.92755 14.3124L9.89623 13.3982C9.39081 13.4155 8.79775 13.4155 8.08235 13.4155V14.3303ZM9.92755 14.3124C11.0701 14.2733 11.9098 14.1496 12.5829 13.6606L12.0452 12.9205C11.6149 13.2332 11.0274 13.3594 9.89623 13.3982L9.92755 14.3124Z" fill="#379E23"/>
<path d="M5.64254 5.94493C5.64254 6.28174 5.3695 6.55477 5.0327 6.55477C4.69589 6.55477 4.42285 6.28174 4.42285 5.94493C4.42285 5.60812 4.69589 5.33508 5.0327 5.33508C5.3695 5.33508 5.64254 5.60812 5.64254 5.94493Z" fill="#379E23"/>
<path d="M5.64254 8.38431C5.64254 8.72112 5.3695 8.99415 5.0327 8.99415C4.69589 8.99415 4.42285 8.72112 4.42285 8.38431C4.42285 8.0475 4.69589 7.77446 5.0327 7.77446C5.3695 7.77446 5.64254 8.0475 5.64254 8.38431Z" fill="#379E23"/>
<path d="M8.69177 5.94493C8.69177 6.28174 8.41873 6.55477 8.08192 6.55477C7.74511 6.55477 7.47208 6.28174 7.47208 5.94493C7.47208 5.60812 7.74511 5.33508 8.08192 5.33508C8.41873 5.33508 8.69177 5.60812 8.69177 5.94493Z" fill="#379E23"/>
<path d="M8.69177 8.38431C8.69177 8.72112 8.41873 8.99415 8.08192 8.99415C7.74511 8.99415 7.47208 8.72112 7.47208 8.38431C7.47208 8.0475 7.74511 7.77446 8.08192 7.77446C8.41873 7.77446 8.69177 8.0475 8.69177 8.38431Z" fill="#379E23"/>
<path d="M8.69177 10.8237C8.69177 11.1605 8.41873 11.4335 8.08192 11.4335C7.74511 11.4335 7.47208 11.1605 7.47208 10.8237C7.47208 10.4869 7.74511 10.2138 8.08192 10.2138C8.41873 10.2138 8.69177 10.4869 8.69177 10.8237Z" fill="#379E23"/>
<path d="M11.741 5.94493C11.741 6.28174 11.468 6.55477 11.1311 6.55477C10.7943 6.55477 10.5213 6.28174 10.5213 5.94493C10.5213 5.60812 10.7943 5.33508 11.1311 5.33508C11.468 5.33508 11.741 5.60812 11.741 5.94493Z" fill="#379E23"/>
<path d="M11.741 8.38431C11.741 8.72112 11.468 8.99415 11.1311 8.99415C10.7943 8.99415 10.5213 8.72112 10.5213 8.38431C10.5213 8.0475 10.7943 7.77446 11.1311 7.77446C11.468 7.77446 11.741 8.0475 11.741 8.38431Z" fill="#379E23"/>
<path d="M5.64254 10.8237C5.64254 11.1605 5.3695 11.4335 5.0327 11.4335C4.69589 11.4335 4.42285 11.1605 4.42285 10.8237C4.42285 10.4869 4.69589 10.2138 5.0327 10.2138C5.3695 10.2138 5.64254 10.4869 5.64254 10.8237Z" fill="#379E23"/>
</svg>
