<svg width="18" height="18" viewBox="0 0 18 18" fill="none" xmlns="http://www.w3.org/2000/svg">
<path opacity="0.2" d="M12.4939 5.02795C12.8104 5.60439 12.9768 6.25119 12.9779 6.90881V7.17849C12.979 7.42824 12.8945 7.67083 12.7385 7.86586C12.5825 8.06088 12.3643 8.19656 12.1204 8.2503C11.131 8.47146 10.1194 8.57819 9.10554 8.56839C8.09171 8.57819 7.08011 8.47146 6.09064 8.2503C5.84674 8.19656 5.62861 8.06088 5.47259 7.86586C5.31658 7.67083 5.23208 7.42824 5.23319 7.17849V6.96413C5.23359 6.28537 5.40989 5.61829 5.7449 5.02795C3.1518 5.5604 1.36084 6.70136 1.36084 8.0152C1.36084 9.84765 4.82521 11.3344 9.10554 11.3344C13.3859 11.3344 16.8502 9.84765 16.8502 8.0152C16.8502 6.70136 15.0731 5.56732 12.4939 5.02795Z" fill="#009379"/>
<path d="M11.9268 13.319L12.1964 14.9509" stroke="#009379" stroke-width="1.00102" stroke-linecap="round" stroke-linejoin="round"/>
<path d="M9.10547 13.5471V15.7599" stroke="#009379" stroke-width="1.00102" stroke-linecap="round" stroke-linejoin="round"/>
<path d="M6.28433 13.319L6.01465 14.9509" stroke="#009379" stroke-width="1.00102" stroke-linecap="round" stroke-linejoin="round"/>
<path d="M12.4939 5.02795C15.0731 5.56732 16.8502 6.70136 16.8502 8.0152C16.8502 9.84765 13.3859 11.3344 9.10554 11.3344C4.82521 11.3344 1.36084 9.84765 1.36084 8.0152C1.36084 6.70136 3.1518 5.5604 5.7449 5.02795" stroke="#009379" stroke-width="1.00102" stroke-linecap="round" stroke-linejoin="round"/>
<path d="M5.23292 7.17859C5.23181 7.42834 5.3163 7.67093 5.47232 7.86596C5.62834 8.06098 5.84647 8.19666 6.09037 8.2504C7.07984 8.47156 8.09144 8.57829 9.10527 8.56849C10.1191 8.57829 11.1307 8.47156 12.1202 8.2504C12.3641 8.19666 12.5822 8.06098 12.7382 7.86596C12.8942 7.67093 12.9787 7.42834 12.9776 7.17859V6.90891C12.9777 6.39629 12.8759 5.88876 12.6783 5.41576C12.4807 4.94276 12.1911 4.51371 11.8264 4.15349C11.4617 3.79327 11.029 3.50905 10.5536 3.31731C10.0782 3.12558 9.56945 3.03015 9.05687 3.03656C6.92708 3.06422 5.23292 4.84135 5.23292 6.96423V7.17859Z" stroke="#009379" stroke-width="1.00102" stroke-linecap="round" stroke-linejoin="round"/>
</svg>
