<svg width="595" height="70" viewBox="0 0 595 70" fill="none" xmlns="http://www.w3.org/2000/svg">
<g clip-path="url(#clip0_1307_3994)">
<path d="M97.3934 48.5095C96.9592 48.5095 96.6335 48.3559 96.3802 47.9975C96.163 47.6903 96.0183 47.1784 96.0183 46.564V27.6718C96.0183 27.0574 96.1268 26.5455 96.3802 26.2383C96.6335 25.9311 96.9592 25.7775 97.3934 25.7775H99.818C100.361 25.7775 100.831 25.8287 101.229 25.8799C101.627 25.9823 101.989 26.1359 102.243 26.4431C102.532 26.7502 102.713 27.1598 102.858 27.7742C103.003 28.3374 103.075 29.1566 103.075 30.1293V44.1577C103.075 45.4376 102.966 46.3592 102.713 46.9736C102.46 47.5879 102.098 47.9975 101.627 48.2023C101.157 48.4071 100.542 48.5095 99.818 48.4583L97.3934 48.5095ZM89.6131 14.7699C89.1788 14.8211 88.8169 14.9746 88.5998 15.2818C88.3827 15.589 88.2741 16.101 88.2741 16.7154V57.5716C88.2741 58.186 88.3827 58.6468 88.636 59.0051C88.8531 59.3123 89.215 59.5171 89.6492 59.5171H99.7094C101.808 59.5171 103.618 59.2099 105.065 58.5956C106.513 57.9812 107.671 57.0084 108.539 55.7797C109.408 54.5509 110.059 52.9126 110.421 50.967C110.819 49.0215 111 46.7688 111 44.1577V30.1293C111 27.5182 110.819 25.2655 110.421 23.32C110.023 21.3744 109.408 19.7873 108.539 18.5585C107.671 17.2786 106.513 16.357 105.065 15.7426C103.618 15.1282 101.845 14.8211 99.7094 14.8211L89.6131 14.7699ZM76.4407 41.7513C76.4407 42.9801 76.4045 44.1065 76.3683 45.0792C76.296 46.052 76.1512 46.8712 75.9341 47.5879C75.7169 48.3047 75.3551 48.8167 74.8484 49.1751C74.378 49.5335 73.7266 49.7383 72.8943 49.7383C72.062 49.7383 71.4106 49.5335 70.9402 49.1751C70.4335 48.8167 70.1079 48.3047 69.8545 47.5879C69.6374 46.9224 69.4927 46.052 69.4203 45.0792C69.3479 44.1065 69.3117 42.9801 69.3479 41.7513V32.5357C69.3479 31.3069 69.3841 30.1805 69.4203 29.2078C69.4927 28.235 69.6374 27.4158 69.8545 26.699C70.0717 25.9823 70.4335 25.4703 70.9402 25.1119C71.4106 24.7535 72.062 24.5487 72.8943 24.5487C73.7266 24.5487 74.378 24.7535 74.8484 25.1119C75.3551 25.4703 75.6808 25.9823 75.9341 26.699C76.1512 27.3646 76.296 28.235 76.3683 29.2078C76.4407 30.1805 76.4407 31.3069 76.4407 32.5357V41.7513ZM84.1849 29.1566C84.1849 28.4398 84.1487 27.5694 84.0763 26.5455C84.0039 25.5215 83.8592 24.4463 83.6059 23.2688C83.3526 22.0912 82.9907 20.9648 82.5203 19.8385C82.0136 18.7121 81.3622 17.6882 80.5299 16.7666C79.6976 15.845 78.6482 15.077 77.3816 14.5139C76.115 13.9507 74.5951 13.6947 72.8219 13.6435C71.0487 13.6435 69.5289 13.9507 68.2623 14.5139C66.9957 15.077 65.9463 15.845 65.1139 16.7666C64.2816 17.6882 63.6302 18.7121 63.1236 19.8385C62.617 20.9648 62.2551 22.1424 62.038 23.2688C61.7847 24.4463 61.6399 25.5215 61.5675 26.5455C61.4952 27.5694 61.459 28.4398 61.459 29.1566V45.1304C61.459 45.8472 61.4952 46.7176 61.5675 47.7415C61.6399 48.7655 61.7847 49.8407 62.038 51.0182C62.2551 52.1958 62.6532 53.3221 63.1236 54.4485C63.6302 55.5749 64.2816 56.5988 65.1139 57.5716C65.9463 58.4932 66.9957 59.2611 68.2623 59.7731C69.5289 60.3363 71.0487 60.6435 72.8219 60.6435C74.5951 60.6435 76.115 60.3363 77.3816 59.7731C78.6482 59.2099 79.6976 58.4932 80.5299 57.5716C81.3622 56.65 82.0136 55.6261 82.5203 54.4485C83.0269 53.3221 83.3888 52.1446 83.6059 51.0182C83.823 49.8407 84.0039 48.7655 84.0763 47.7415C84.1487 46.7176 84.1849 45.8472 84.1849 45.1304V29.1566ZM50.1322 41.7513C50.1322 42.9801 50.096 44.1065 50.0598 45.0792C49.9875 46.052 49.8427 46.8712 49.6256 47.5879C49.4085 48.3047 49.0466 48.8167 48.54 49.1751C48.0695 49.5335 47.4181 49.7383 46.5858 49.7383C45.7535 49.7383 45.1021 49.5335 44.6317 49.1751C44.125 48.8167 43.7994 48.3047 43.546 47.5879C43.3289 46.9224 43.1842 46.052 43.1118 45.0792C43.0394 44.1065 43.0032 42.9801 43.0394 41.7513V32.5357C43.0394 31.3069 43.0756 30.1805 43.1118 29.2078C43.1842 28.235 43.3289 27.4158 43.546 26.699C43.7632 25.9823 44.125 25.4703 44.6317 25.1119C45.1021 24.7535 45.7535 24.5487 46.5858 24.5487C47.4181 24.5487 48.0695 24.7535 48.54 25.1119C49.0466 25.4703 49.3723 25.9823 49.6256 26.699C49.8427 27.3646 49.9875 28.235 50.0598 29.2078C50.1322 30.1805 50.1322 31.3069 50.1322 32.5357V41.7513ZM57.9126 29.1566C57.9126 28.4398 57.8764 27.5694 57.804 26.5455C57.7316 25.5215 57.5869 24.4463 57.3336 23.2688C57.0803 22.0912 56.7184 20.9648 56.2479 19.8385C55.7413 18.7121 55.0899 17.6882 54.2576 16.7666C53.4253 15.845 52.3759 15.077 51.1093 14.5139C49.8427 13.9507 48.3228 13.6947 46.5496 13.6435C44.7764 13.6435 43.2565 13.9507 41.99 14.5139C40.7234 15.077 39.674 15.845 38.8416 16.7666C38.0093 17.6882 37.3579 18.7121 36.8513 19.8385C36.3447 20.9648 35.9828 22.1424 35.7657 23.2688C35.5124 24.4463 35.3676 25.5215 35.2952 26.5455C35.2229 27.5694 35.1867 28.4398 35.1867 29.1566V45.1304C35.1867 45.8472 35.2229 46.7176 35.2952 47.7415C35.3676 48.7655 35.5124 49.8407 35.7657 51.0182C35.9828 52.1958 36.3809 53.3221 36.8513 54.4485C37.3579 55.5749 38.0093 56.5988 38.8416 57.5716C39.674 58.4932 40.7234 59.2611 41.99 59.7731C43.2565 60.3363 44.7764 60.6435 46.5496 60.6435C48.3228 60.6435 49.8427 60.3363 51.1093 59.7731C52.3759 59.2099 53.4253 58.4932 54.2576 57.5716C55.0899 56.65 55.7413 55.6261 56.2479 54.4485C56.7546 53.3221 57.1165 52.1446 57.3336 51.0182C57.5507 49.8407 57.7316 48.7655 57.804 47.7415C57.8764 46.7176 57.9126 45.8472 57.9126 45.1304V29.1566ZM31.206 14.7699C32.1107 14.7699 32.545 15.4354 32.545 16.6642V23.8319C32.545 24.4463 32.4364 24.9071 32.2193 25.2655C32.0022 25.6239 31.6403 25.7775 31.206 25.7775H19.4088C18.9746 25.7775 18.6489 25.9311 18.3956 26.2383C18.1422 26.5455 18.0337 27.0574 18.0337 27.6718V57.6228C18.0337 58.2372 17.9251 58.698 17.708 59.0563C17.4909 59.3635 17.129 59.5683 16.6947 59.5683H11.3751C10.9409 59.5683 10.6152 59.4147 10.3619 59.0563C10.1448 58.698 10 58.2372 10 57.6228V16.7154C10 16.101 10.1086 15.589 10.3619 15.2818C10.6152 14.9746 10.9409 14.8211 11.3751 14.8211L31.206 14.7699Z" fill="#2134AE" fill-opacity="0.6"/>
<path d="M21.2067 39.8011C17.8353 39.3625 1.37745 43.4195 0.144926 39.0336C-1.92137 31.7419 15.3703 35.8537 17.6903 35.9634C18.8503 36.0182 20.3004 36.3472 21.1341 36.0182C21.7142 35.7441 22.1129 34.3187 22.7654 33.7704C24.2155 32.4546 26.5718 33.1674 28.6018 33.4415C29.9794 33.6059 31.3206 33.8252 32.7707 33.9897C30.7044 34.4283 28.4931 34.8669 26.318 35.3055C26.0643 35.3603 25.6655 35.1959 25.4842 35.6344C27.6955 36.1827 30.1969 36.2923 32.5894 36.5665C30.2331 37.1147 27.5868 37.2244 25.2667 37.8823C25.4117 38.266 25.8468 38.1564 26.1005 38.2112C28.1668 38.4305 30.4506 38.7046 32.6257 38.8691C30.3781 39.4173 27.7681 39.527 25.5205 40.1849C25.593 40.7331 26.0643 40.5686 26.2818 40.5686C28.3481 40.9524 30.6681 41.391 32.8069 41.6651C30.4506 41.9393 27.5505 42.7616 25.1217 42.9809C23.2367 43.1454 22.1129 41.5007 21.2067 39.8011Z" fill="#151411" fill-opacity="0.6"/>
</g>
<line x1="151.5" y1="2.53632" x2="151.5" y2="67.5363" stroke="#151411" stroke-opacity="0.6"/>
<g clip-path="url(#clip1_1307_3994)">
<path d="M343.899 2.53632C341.103 2.53632 338.816 5.93216 338.823 10.137C338.816 14.3632 341.124 17.7484 343.928 17.7378C346.724 17.7484 348.962 14.3632 348.962 10.137C348.955 5.9428 346.696 2.53632 343.899 2.53632ZM252.128 2.66406C249.318 2.66406 247.052 6.02796 247.052 10.2328C247.052 14.459 249.325 17.8974 252.128 17.9081C254.918 17.9081 257.184 14.459 257.184 10.2328C257.191 6.02796 254.918 2.66406 252.128 2.66406ZM327.644 11.2016C324.854 11.2016 322.567 14.5974 322.567 18.8023C322.567 23.0072 324.847 26.4349 327.644 26.4349C330.447 26.4349 332.699 23.0178 332.699 18.8023C332.706 14.608 330.447 11.2016 327.644 11.2016ZM360.254 11.2016C357.465 11.2016 355.178 14.5974 355.178 18.8023C355.178 23.0072 357.465 26.4349 360.254 26.4349C363.065 26.4349 365.288 23.0072 365.288 18.8023C365.288 14.5974 363.065 11.1909 360.254 11.2016ZM268.122 11.3293C265.333 11.3293 263.046 14.7677 263.046 18.962C263.046 23.1775 265.326 26.5627 268.122 26.5627C270.905 26.5627 273.177 23.1668 273.177 18.962C273.177 14.7677 270.912 11.3293 268.122 11.3293ZM235.837 11.5316C233.048 11.5209 230.782 14.9168 230.782 19.111V19.1429C230.782 23.3585 233.034 26.7862 235.837 26.7756C238.62 26.7756 240.893 23.3478 240.893 19.1429C240.893 14.9274 238.62 11.5316 235.837 11.5316ZM345.634 29.2879C345.634 29.2879 335.573 29.3837 335.453 29.3837C333.74 29.3837 332.288 31.5766 332.288 34.1421L332.267 61.6495H332.288C332.366 64.9069 334.179 67.5363 336.359 67.5363C338.561 67.5363 340.374 64.9069 340.451 61.6495V52.09C340.451 52.09 344.473 52.0581 344.607 52.0581C346.158 52.0581 347.447 50.2058 347.447 47.8639C347.447 45.5113 346.165 43.5951 344.607 43.5951H340.451V41.0509H345.641C347.793 41.0509 349.521 38.4641 349.514 35.2279C349.507 32.0237 347.786 29.2879 345.634 29.2879ZM364.148 29.2879C364.148 29.2879 354.088 29.3837 353.967 29.3837C352.24 29.3837 350.802 31.566 350.802 34.1421V61.6495H350.824C350.894 64.9069 352.679 67.5363 354.873 67.5363C357.082 67.5363 358.852 64.9176 358.923 61.6495H358.944V52.09C358.944 52.09 362.959 52.0581 363.1 52.0581C364.651 52.0581 365.939 50.2058 365.939 47.8639C365.939 45.5113 364.651 43.5951 363.1 43.5951H358.937V41.0509H364.127C366.265 41.0509 368 38.4641 368 35.2279C368 32.0237 366.286 29.2772 364.148 29.2879ZM273.085 29.3517C270.94 29.3517 269.213 31.9492 269.213 35.1428C269.213 35.3557 269.241 35.5792 269.255 35.8028L269.234 61.5963L269.255 61.8943C269.361 64.9389 271.039 67.3873 273.107 67.3873C275.252 67.3873 276.979 64.8005 276.979 61.5963C276.979 61.2237 276.958 60.8724 276.916 60.5424V52.8884L282.679 64.5237C282.764 64.7153 282.856 64.9069 282.941 65.1198L282.962 65.1837C283.705 66.4824 284.831 67.3021 286.063 67.3021C288.307 67.3021 290.113 64.5769 290.113 61.213C290.12 60.0421 289.9 58.8924 289.475 57.9023L289.412 57.7746C289.355 57.6362 289.306 57.4978 289.235 57.3807L284.024 46.8632L288.265 39.156H288.244C288.796 38.1447 289.143 36.8567 289.143 35.4195C289.136 32.1408 287.366 29.4369 285.185 29.4369C283.755 29.4369 282.516 30.5759 281.822 32.2792L276.916 41.1786V36.0157C276.937 35.7283 276.958 35.4195 276.958 35.1215C276.958 31.9492 275.223 29.3517 273.085 29.3517ZM194.434 29.3837C192.543 29.3837 191.028 31.7043 191.028 34.5041C191.028 34.5041 191.007 61.8198 191.007 62.2776C191.007 65.1837 192.479 67.366 194.412 67.366L203.206 67.3979C207.524 67.3979 211.036 62.1498 211.036 55.6562C211.036 51.9836 209.946 48.7155 208.197 46.5651C209.224 44.7342 209.868 42.3603 209.868 39.7522C209.875 34.0463 206.724 29.3624 202.894 29.373H194.434V29.3837ZM253.806 29.554C246.896 29.554 241.275 37.9957 241.275 48.3961C241.275 58.7966 246.896 67.2702 253.806 67.2702C260.724 67.2702 266.345 58.7966 266.338 48.3961C266.338 37.9957 260.724 29.554 253.806 29.554ZM225.458 29.6179C218.534 29.6179 212.941 38.0809 212.948 48.5026C212.948 58.8924 218.527 67.3234 225.458 67.3128C232.389 67.3128 237.99 58.8924 237.99 48.5026C237.99 38.0915 232.389 29.6179 225.458 29.6179ZM317.725 29.6179C310.779 29.6179 305.144 38.1128 305.144 48.5665C305.144 58.9988 310.772 67.4831 317.725 67.4831C324.663 67.4831 330.306 58.9988 330.306 48.5665C330.306 38.1128 324.67 29.6179 317.725 29.6179ZM197.839 37.9425H200.983C202.03 37.9425 202.873 39.188 202.873 40.7848C202.873 42.339 202.023 43.5632 200.983 43.5632C200.883 43.5632 197.839 43.5951 197.839 43.5951V37.9425ZM296.775 40.4228C293.978 40.4228 291.727 43.8506 291.72 48.0555C291.727 52.2604 293.978 55.6881 296.775 55.6881C299.579 55.6881 301.851 52.2604 301.851 48.0555C301.844 43.8612 299.564 40.4228 296.775 40.4228ZM253.806 40.5931C256.681 40.5931 259.017 44.0954 259.017 48.4281C259.017 52.7394 256.681 56.231 253.806 56.231C250.932 56.231 248.617 52.7181 248.617 48.3961C248.61 44.0954 250.925 40.6038 253.785 40.5931H253.806ZM225.458 40.657C228.326 40.657 230.669 44.1593 230.669 48.4919C230.669 52.8139 228.333 56.3056 225.458 56.2949C222.612 56.3056 220.276 52.8139 220.268 48.4919C220.268 44.1593 222.605 40.657 225.458 40.657ZM317.725 40.7209C320.606 40.7209 322.936 44.2019 322.936 48.5558C322.936 52.8778 320.599 56.3907 317.725 56.3907C314.843 56.3907 312.507 52.8778 312.514 48.5558C312.507 44.2338 314.829 40.7315 317.703 40.7209H317.725ZM197.839 51.6323L201.839 51.6642C202.93 51.6642 203.822 52.9629 203.822 54.6023C203.815 56.263 202.937 57.583 201.839 57.583H197.86L197.839 51.6323ZM363.971 57.583C362.145 57.583 360.693 59.7866 360.693 62.5437C360.7 65.3115 362.138 67.5044 363.971 67.5044C365.798 67.5044 367.271 65.3008 367.271 62.5437C367.278 59.8079 365.805 57.5936 363.985 57.583C363.985 57.583 363.978 57.583 363.971 57.583ZM363.971 58.0833C365.6 58.0833 366.938 60.074 366.938 62.5437C366.938 65.0027 365.6 67.0041 363.971 67.0041C362.336 67.0041 361.026 64.9921 361.026 62.5437C361.026 60.074 362.336 58.0833 363.971 58.0833ZM362.477 59.6056V65.354H363.27V63.1079H364.085C364.318 63.1079 364.488 63.1505 364.566 63.2782C364.651 63.3847 364.7 63.6402 364.7 64.0021V64.5344C364.7 64.7153 364.715 64.8644 364.722 65.0347C364.736 65.1305 364.764 65.2476 364.785 65.3647H365.663V65.2369C365.585 65.1731 365.529 65.024 365.508 64.875C365.493 64.7792 365.486 64.6089 365.486 64.3427V63.9808C365.486 63.5763 365.451 63.2782 365.373 63.0866C365.302 62.8843 365.161 62.7353 364.998 62.6288C365.196 62.5224 365.373 62.3308 365.458 62.0647C365.55 61.8092 365.585 61.543 365.593 61.2663C365.593 61.0321 365.571 60.8511 365.529 60.6701C365.472 60.4891 365.394 60.3295 365.309 60.1698C365.217 59.9888 365.09 59.8611 364.955 59.7759C364.807 59.6801 364.623 59.6269 364.361 59.6056H362.477ZM363.27 60.6275H364.191C364.368 60.6275 364.481 60.6595 364.566 60.7233C364.722 60.8404 364.807 61.064 364.807 61.4153C364.807 61.724 364.715 61.9369 364.566 62.0434C364.474 62.1072 364.354 62.1392 364.169 62.1392H363.27V60.6275Z" fill="#D9CD25" fill-opacity="0.6"/>
</g>
<line x1="408.5" y1="2.53632" x2="408.5" y2="67.5363" stroke="#151411" stroke-opacity="0.6"/>
<path fill-rule="evenodd" clip-rule="evenodd" d="M449.801 54.3768L460.205 54.1669L460.234 54.076L449.024 51.3848L448.967 51.0603L458.367 50.8587C458.367 50.8587 458.289 50.5787 458.049 49.8841L448.378 47.5743L448.345 47.2498L457.393 47.0544L457.251 46.1078L448.076 44.0532L448.066 43.6532L456.979 43.461L456.91 42.4761L448 40.2799L448.015 39.9533L456.913 39.7611C456.867 39.3797 456.941 38.6087 456.941 38.6087L448.141 36.5996L448.181 36.2709L457.072 36.1159C457.071 35.9258 457.123 35.2261 457.123 35.2261L448.468 32.8956L448.507 32.5679L457.483 32.3736C457.483 32.3736 457.542 31.6357 457.644 31.2523L448.993 29.2721L449.056 28.9435L458.051 28.7492C458.051 28.7492 458.238 27.9679 458.341 27.6795L449.73 25.7314L449.793 25.4399L458.939 25.2425C458.939 25.2425 459.204 24.4168 459.265 24.1935L450.72 22.2103L450.808 21.9178L460.117 21.7173C460.117 21.7173 460.366 20.9825 460.595 20.4688L452.059 18.4866L452.147 18.2303L461.72 18.0597C461.72 18.0597 462.008 17.3797 462.26 17.0252L453.631 15.0864L453.791 14.7929L463.579 14.582C463.579 14.582 463.961 13.9578 464.233 13.6343L455.749 11.6924L455.886 11.3989L465.859 11.1715L466.51 10.3044L458.782 7.80023L458.763 7.80333C462.08 4.65117 466.197 2.74644 471.157 2.64722C480.377 2.46016 488.163 9.30499 488.423 25.3769L476.435 25.6187C476.038 19.9211 473.773 17.9791 470.546 18.0442C463.573 18.1848 460.561 29.3961 460.656 40.0277C460.721 47.2859 462.839 52.0845 467.968 51.979C471.368 51.9108 474.233 50.0392 475.457 45.0009L469.694 45.1156L471.419 31.8559L488.247 31.5158L483.827 65.5747L475.816 65.7359L476.108 59.7675L475.991 59.5959C473.389 65.0073 469.317 67.3368 464.937 67.4257C456.376 67.5993 451.946 61.2485 449.814 54.4284L449.801 54.3768ZM511.553 31.9881C510.325 30.9009 508.803 30.1516 506.844 30.1857C504.404 30.2271 501.754 31.7143 501.79 36.3144C501.839 42.7995 510.637 42.7034 510.715 52.8461C510.759 58.6658 508.112 65.3091 501.902 65.4155C498.908 65.4682 496.757 64.5071 494.678 63.3227L495.822 58.2038C497.347 59.6186 499.463 60.5798 501.274 60.5498C505.192 60.4816 506.827 56.7951 506.801 53.5799C506.742 45.7099 497.955 47.2477 497.873 36.4952C497.818 29.455 502.075 25.3903 506.326 25.3169C508.469 25.2797 510.581 25.8533 512.549 27.0387L511.553 31.9881ZM526.326 63.8291C524.52 64.5257 522.639 65.0569 520.755 65.0889C516.172 65.1675 512.047 62.469 511.97 52.4916C511.91 44.6764 515.5 35.5785 522.153 35.4628C526.699 35.3842 529.281 39.4417 529.333 46.1491C529.347 48.0321 529.212 49.6433 529.04 51.3083L515.77 51.5388C515.701 52.1252 515.669 52.7199 515.673 53.3153C515.719 59.2455 518.171 60.9208 521.535 60.863C523.272 60.833 525.152 60.1364 526.844 59.0523L526.326 63.8291ZM525.757 47.4854C525.826 46.6534 525.857 45.9879 525.852 45.3213C525.827 41.9965 524.441 39.637 521.816 39.6815C518.971 39.7301 516.819 43.4827 516.112 47.6528L525.757 47.4854ZM531.579 40.2871C531.718 39.1203 531.929 37.6207 532.063 35.9557L535.317 35.8989L534.759 40.3987H534.833C535.92 37.7178 537.934 35.1889 541.224 35.132C541.556 35.1258 542.148 35.2271 542.817 35.6043L542.075 40.2168C541.408 39.8417 540.852 39.6835 540.594 39.6897C536.306 39.7621 534.253 46.7826 533.799 50.2831L531.947 64.2291L528.472 64.29L531.579 40.2871ZM543.89 35.749L547.364 35.6901L543.589 64.0265L540.115 64.0875L543.89 35.749ZM548.462 29.3517L544.543 29.4189L545.31 23.529L549.229 23.4618L548.462 29.3517ZM561.174 63.2235C559.368 63.92 557.487 64.4513 555.603 64.4833C551.02 64.5639 546.895 61.8634 546.819 51.886C546.758 44.0707 550.348 34.9729 557.001 34.8571C561.547 34.7796 564.129 38.8381 564.181 45.5435C564.195 47.4286 564.06 49.0377 563.888 50.7047L550.618 50.9331C550.549 51.5196 550.517 52.1143 550.521 52.7097C550.567 58.6399 553.019 60.3152 556.383 60.2573C558.12 60.2294 560 59.5308 561.692 58.4487L561.174 63.2235ZM560.605 46.8798C560.674 46.0478 560.705 45.3822 560.7 44.7156C560.674 41.3909 559.289 39.0314 556.664 39.0759C553.819 39.1265 551.667 42.877 550.96 47.0472L560.605 46.8798Z" fill="#882164" fill-opacity="0.6"/>
<path fill-rule="evenodd" clip-rule="evenodd" d="M575.931 40.1838C574.965 39.479 573.444 38.7845 572.15 38.8072C570.635 38.833 568.644 39.4769 568.665 42.3056C568.703 47.1258 575.136 47.2364 575.196 55.1075C575.249 61.9265 571.088 64.2146 568.132 64.2653C565.138 64.318 564.024 63.7268 562.615 63.0302L563.245 58.5304C564.619 59.3376 566.067 60.0889 567.582 60.0621C569.467 60.03 571.528 58.8291 571.502 55.6149C571.466 50.7926 565.029 50.1829 564.974 43.0331C564.928 37.0461 568.901 34.6494 572.007 34.5957C573.669 34.5668 575.375 35.1466 576.934 36.0622L575.931 40.1838Z" fill="#151411" fill-opacity="0.6"/>
<defs>
<clipPath id="clip0_1307_3994">
<rect width="111" height="65" fill="white" transform="translate(0 2.53632)"/>
</clipPath>
<clipPath id="clip1_1307_3994">
<rect width="177" height="65" fill="white" transform="translate(191 2.53632)"/>
</clipPath>
</defs>
</svg>
