<svg width="56" height="52" viewBox="0 0 56 52" fill="none" xmlns="http://www.w3.org/2000/svg">
<path d="M28.0037 4.74829C34.3434 4.74829 35.1344 4.76956 37.6217 4.87579C40.1067 4.98205 41.7984 5.33693 43.2872 5.86392C44.8272 6.40367 46.1244 7.13468 47.4217 8.31406C48.6083 9.37634 49.5264 10.6613 50.1122 12.0795C50.6884 13.4332 51.0804 14.9759 51.1972 17.2391C51.3067 19.5043 51.3372 20.2247 51.3372 25.9982C51.3372 31.7719 51.3137 32.4923 51.1972 34.7575C51.0804 37.0206 50.6884 38.5613 50.1122 39.9172C49.5281 41.336 48.6097 42.6214 47.4217 43.6825C46.2549 44.7627 44.8443 45.5988 43.2872 46.1328C41.8007 46.6576 40.1067 47.0146 37.6217 47.1209C35.1344 47.2206 34.3434 47.2484 28.0037 47.2484C21.6641 47.2484 20.8731 47.227 18.3858 47.1209C15.9008 47.0146 14.2091 46.6576 12.7204 46.1328C11.1625 45.6003 9.75132 44.7639 8.58576 43.6825C7.39904 42.6204 6.48092 41.3355 5.89541 39.9172C5.31676 38.5634 4.92709 37.0206 4.81041 34.7575C4.70076 32.4923 4.67041 31.7719 4.67041 25.9982C4.67041 20.2247 4.69376 19.5043 4.81041 17.2391C4.92709 14.9738 5.31676 13.4353 5.89541 12.0795C6.47929 10.6604 7.39764 9.37511 8.58576 8.31406C9.75165 7.23291 11.1627 6.39671 12.7204 5.86392C14.2091 5.33693 15.8984 4.98205 18.3858 4.87579C20.8731 4.77593 21.6641 4.74829 28.0037 4.74829ZM28.0037 15.3733C24.9096 15.3733 21.9421 16.4927 19.7542 18.4853C17.5663 20.4779 16.3371 23.1804 16.3371 25.9982C16.3371 28.8162 17.5663 31.5187 19.7542 33.5113C21.9421 35.5039 24.9096 36.6233 28.0037 36.6233C31.098 36.6233 34.0654 35.5039 36.2533 33.5113C38.4412 31.5187 39.6704 28.8162 39.6704 25.9982C39.6704 23.1804 38.4412 20.4779 36.2533 18.4853C34.0654 16.4927 31.098 15.3733 28.0037 15.3733ZM43.1704 14.8421C43.1704 14.1376 42.863 13.4619 42.3162 12.9638C41.769 12.4657 41.0273 12.1858 40.2537 12.1858C39.4803 12.1858 38.7383 12.4657 38.1915 12.9638C37.6444 13.4619 37.3372 14.1376 37.3372 14.8421C37.3372 15.5465 37.6444 16.2221 38.1915 16.7203C38.7383 17.2185 39.4803 17.4983 40.2537 17.4983C41.0273 17.4983 41.769 17.2185 42.3162 16.7203C42.863 16.2221 43.1704 15.5465 43.1704 14.8421ZM28.0037 19.6233C29.8604 19.6233 31.6409 20.295 32.9535 21.4905C34.2662 22.686 35.0037 24.3075 35.0037 25.9982C35.0037 27.6891 34.2662 29.3107 32.9535 30.5061C31.6409 31.7016 29.8604 32.3732 28.0037 32.3732C26.1472 32.3732 24.3668 31.7016 23.054 30.5061C21.7413 29.3107 21.0038 27.6891 21.0038 25.9982C21.0038 24.3075 21.7413 22.686 23.054 21.4905C24.3668 20.295 26.1472 19.6233 28.0037 19.6233Z" fill="#379E23"/>
</svg>
