<svg width="56" height="52" viewBox="0 0 56 52" fill="none" xmlns="http://www.w3.org/2000/svg">
<path d="M16.1912 11.1221C16.1906 12.2493 15.6983 13.3301 14.8227 14.1267C13.9471 14.9234 12.7599 15.3706 11.5222 15.37C10.2846 15.3695 9.09783 14.9211 8.22308 14.1237C7.34836 13.3263 6.85727 12.245 6.85791 11.1179C6.85853 9.99071 7.35077 8.90992 8.22638 8.1133C9.102 7.31668 10.2892 6.86943 11.5269 6.87C12.7646 6.87056 13.9513 7.31887 14.826 8.11631C15.7008 8.91374 16.1919 9.99497 16.1912 11.1221ZM16.3312 18.5171H6.99791V45.1222H16.3312V18.5171ZM31.0779 18.5171H21.7912V45.1222H30.9847V31.161C30.9847 23.3834 42.1147 22.6609 42.1147 31.161V45.1222H51.3312V28.2708C51.3312 15.1596 34.8579 15.6484 30.9847 22.0871L31.0779 18.5171Z" fill="#379E23"/>
</svg>
