<svg width="19" height="18" viewBox="0 0 19 18" fill="none" xmlns="http://www.w3.org/2000/svg">
<path opacity="0.2" d="M5.29529 15.3658C5.24381 15.4181 5.18246 15.4596 5.11479 15.4879C5.04712 15.5163 4.9745 15.5309 4.90114 15.5309C4.82778 15.5309 4.75515 15.5163 4.68748 15.4879C4.61982 15.4596 4.55846 15.4181 4.50699 15.3658L3.08251 13.9413C3.03025 13.8899 2.98874 13.8285 2.9604 13.7608C2.93207 13.6932 2.91748 13.6206 2.91748 13.5472C2.91748 13.4738 2.93207 13.4012 2.9604 13.3335C2.98874 13.2659 3.03025 13.2045 3.08251 13.153L10.4331 5.80249L12.6458 8.01526L5.29529 15.3658Z" fill="#009379"/>
<path d="M15.4121 9.12158V12.4407" stroke="#009379" stroke-width="1.00102" stroke-linecap="round" stroke-linejoin="round"/>
<path d="M13.7524 10.7811H17.0716" stroke="#009379" stroke-width="1.00102" stroke-linecap="round" stroke-linejoin="round"/>
<path d="M6.28418 3.0365V5.80247" stroke="#009379" stroke-width="1.00102" stroke-linecap="round" stroke-linejoin="round"/>
<path d="M4.90137 4.41943H7.66733" stroke="#009379" stroke-width="1.00102" stroke-linecap="round" stroke-linejoin="round"/>
<path d="M12.0928 12.9939V15.2067" stroke="#009379" stroke-width="1.00102" stroke-linecap="round" stroke-linejoin="round"/>
<path d="M10.9863 14.1003H13.1991" stroke="#009379" stroke-width="1.00102" stroke-linecap="round" stroke-linejoin="round"/>
<path d="M13.3668 2.87267L3.08404 13.1555C2.868 13.3715 2.868 13.7218 3.08404 13.9378L4.51424 15.368C4.73028 15.584 5.08054 15.584 5.29657 15.368L15.5794 5.08521C15.7954 4.86917 15.7954 4.51891 15.5794 4.30287L14.1492 2.87267C13.9331 2.65664 13.5829 2.65664 13.3668 2.87267Z" stroke="#009379" stroke-width="1.00102" stroke-linecap="round" stroke-linejoin="round"/>
<path d="M10.4331 5.80249L12.6459 8.01526" stroke="#009379" stroke-width="1.00102" stroke-linecap="round" stroke-linejoin="round"/>
</svg>
