<svg width="13" height="11" viewBox="0 0 13 11" fill="none" xmlns="http://www.w3.org/2000/svg">
<path d="M4.06674 7.67625C6.25646 7.67625 8.03073 6.17451 8.03073 4.3221C8.03073 2.4697 6.25646 0.967957 4.06674 0.967957C1.87701 0.967957 0.102748 2.4697 0.102748 4.3221C0.102748 5.05773 0.382895 5.73809 0.857431 6.29266C0.790729 6.47181 0.691629 6.62998 0.586812 6.76339C0.495335 6.88155 0.401953 6.97302 0.333345 7.03591C0.299041 7.06641 0.270455 7.09118 0.251397 7.10643C0.241868 7.11405 0.234245 7.11977 0.230434 7.12167L0.226622 7.12548C0.121805 7.20362 0.0760669 7.34084 0.117994 7.46471C0.159921 7.58858 0.276172 7.67625 0.40767 7.67625C0.823127 7.67625 1.2424 7.56953 1.59115 7.43803C1.76648 7.37133 1.93038 7.297 2.0714 7.22077C2.65838 7.51045 3.33874 7.67625 4.06674 7.67625ZM8.64058 4.3221C8.64058 6.46228 6.75196 8.07455 4.51459 8.26704C4.97769 9.68493 6.51374 10.7255 8.33565 10.7255C9.06366 10.7255 9.74401 10.5597 10.331 10.27C10.4739 10.3462 10.6359 10.4206 10.8112 10.4873C11.16 10.6188 11.5793 10.7255 11.9947 10.7255C12.1262 10.7255 12.2444 10.6397 12.2844 10.5139C12.3244 10.3882 12.2806 10.2509 12.1739 10.1728L12.1701 10.169C12.1662 10.1652 12.1586 10.1614 12.1491 10.1537C12.13 10.1385 12.1014 10.1156 12.0671 10.0832C11.9985 10.0203 11.9052 9.92886 11.8137 9.81071C11.7089 9.6773 11.6098 9.51722 11.5431 9.33998C12.0176 8.78731 12.2977 8.10695 12.2977 7.36942C12.2977 5.60087 10.6797 4.15058 8.62724 4.0248C8.63486 4.122 8.63867 4.2211 8.63867 4.3202L8.64058 4.3221Z" fill="#379E23"/>
</svg>
