<svg width="18" height="18" viewBox="0 0 18 18" fill="none" xmlns="http://www.w3.org/2000/svg">
<path opacity="0.2" d="M2.45546 5.18311C2.40535 5.26917 2.3791 5.36703 2.3794 5.46662V12.2847C2.37993 12.3832 2.40641 12.4798 2.45619 12.5648C2.50596 12.6498 2.57727 12.7201 2.66291 12.7688L8.74803 16.1917C8.83008 16.2385 8.92324 16.2624 9.01772 16.2608L9.07995 8.87567L2.45546 5.18311Z" fill="#009379"/>
<path d="M15.656 12.2848V5.46674C15.6555 5.36825 15.629 5.27165 15.5792 5.18666C15.5295 5.10168 15.4582 5.03133 15.3725 4.98269L9.28739 1.55981C9.2054 1.51247 9.11239 1.48755 9.01771 1.48755C8.92303 1.48755 8.83002 1.51247 8.74803 1.55981L2.66291 4.98269C2.57727 5.03133 2.50596 5.10168 2.45619 5.18666C2.40641 5.27165 2.37992 5.36825 2.37939 5.46674V12.2848C2.37992 12.3833 2.40641 12.4799 2.45619 12.5649C2.50596 12.6499 2.57727 12.7203 2.66291 12.7689L8.74803 16.1918C8.83002 16.2391 8.92303 16.264 9.01771 16.264C9.11239 16.264 9.2054 16.2391 9.28739 16.1918L15.3725 12.7689C15.4582 12.7203 15.5295 12.6499 15.5792 12.5649C15.629 12.4799 15.6555 12.3833 15.656 12.2848V12.2848Z" stroke="#009379" stroke-width="1.00102" stroke-linecap="round" stroke-linejoin="round"/>
<path d="M12.4062 10.5699V6.97414L5.69873 3.27466" stroke="#009379" stroke-width="1.00102" stroke-linecap="round" stroke-linejoin="round"/>
<path d="M15.5801 5.18311L9.08005 8.87567L2.45557 5.18311" stroke="#009379" stroke-width="1.00102" stroke-linecap="round" stroke-linejoin="round"/>
<path d="M9.07981 8.87573L9.01758 16.2609" stroke="#009379" stroke-width="1.00102" stroke-linecap="round" stroke-linejoin="round"/>
</svg>
