<svg width="32" height="32" viewBox="0 0 32 32" fill="none" xmlns="http://www.w3.org/2000/svg">
<path d="M4.33305 14.3333C4.33305 6.96954 10.3021 1 17.6653 1C25.0284 1 30.9975 6.96954 30.9975 14.3333C30.9975 16.25 30.5931 18.0723 29.8649 19.7194L31 27.6654L24.191 25.963C22.262 27.0479 20.0359 27.6667 17.6653 27.6667M1.00158 22.6667C1.00158 23.8646 1.25431 25.0035 1.70934 26.0329L1 30.9992L5.25525 29.9352C6.46072 30.6133 7.85191 31 9.33342 31C13.935 31 17.6653 27.269 17.6653 22.6667C17.6653 18.0643 13.935 14.3333 9.33342 14.3333C4.73187 14.3333 1.00158 18.0643 1.00158 22.6667Z" stroke="black" stroke-width="2" stroke-linecap="round" stroke-linejoin="round"/>
</svg>
