<svg width="568" height="81" viewBox="0 0 568 81" fill="none" xmlns="http://www.w3.org/2000/svg">
<path fill-rule="evenodd" clip-rule="evenodd" d="M13.3285 22.7295C14.2933 21.4116 15.5351 20.752 16.6384 20.752C18.708 20.752 20.7769 22.2906 22.8457 24.9275L23.8113 26.2466L26.5695 20.0925L25.8794 18.9929C23.2589 15.4769 20.5007 13.7177 17.3278 13.7177C14.9827 13.7177 12.7761 15.0368 10.5695 17.2349C8.36295 19.6524 6.98346 22.7283 6.56954 26.4649C6.01789 30.4209 6.56954 33.9369 8.36295 36.5738C9.46625 38.333 11.2597 39.8716 13.8802 41.6283C15.8113 42.9474 17.0523 44.0458 17.604 44.926C18.2941 46.2451 18.5695 48.0007 18.2941 50.2C18.0179 52.3968 17.3285 54.156 16.0868 55.2545C14.9835 56.5735 13.7417 57.0136 12.5007 57.0136C9.60397 57.0136 7.12194 55.035 4.91385 50.6389L4.22448 49.1027L0.776123 55.035L1.46625 56.1334C2.56954 58.3327 4.086 60.0919 6.01714 61.628C8.08675 63.1666 10.0171 64.0479 11.9483 64.0479C14.4311 64.0479 16.6376 62.9471 18.7065 60.5296C21.0508 58.1121 22.5688 54.8144 22.9827 50.6389C23.6721 46.2451 22.9827 42.7268 21.1893 39.8715C20.2237 38.333 18.2926 36.5738 15.5336 34.8159H15.3959C12.2237 32.6178 10.8442 30.2003 11.1197 27.5633C11.3974 25.5859 12.0875 23.8279 13.3285 22.7295ZM41.8802 0.970581H37.1908L35.2597 14.8162H28.9153L27.9498 21.6298H34.2948L30.8465 47.7836C30.0186 53.7159 30.2948 58.1121 31.8121 60.749C32.7776 62.9459 34.571 64.0467 36.9161 64.0467C41.1916 64.0467 44.9161 60.3089 48.226 52.8369L49.1916 50.6377L44.5022 48.8809L44.0883 49.9793C42.0186 54.5937 39.8128 57.0124 37.4677 57.0124C36.5022 57.0124 35.8121 56.7918 35.3981 55.914C34.9842 55.0338 34.8465 53.2746 35.2597 50.8571L39.1219 21.6274H49.3293L50.2948 14.8138H39.949L41.8802 0.970581ZM73.8802 18.554C72.2252 15.2563 70.0171 13.7177 67.1219 13.7177C62.9835 13.7177 59.3974 16.5741 56.5007 21.8505C54.0179 26.4661 52.3629 32.1801 51.5351 38.7731C50.1556 47.5642 50.845 54.1572 53.19 58.9911C54.9827 62.2888 57.4662 64.0479 60.7761 64.0479C63.6728 64.0479 67.3959 62.7265 71.6721 59.8724L72.6376 59.2117L71.5336 51.7409L70.2933 52.8393C66.9835 55.6969 63.9483 57.0148 61.3278 57.0148C59.3966 57.0148 58.0179 56.1346 57.19 54.5949C55.8106 52.1774 55.3966 47.7837 55.9483 41.4089H75.1204L75.3966 39.8715C76.6376 30.2015 76.086 22.9489 73.8802 18.554ZM66.4303 20.7508C67.949 20.7508 69.1893 21.6298 70.1549 23.6085C71.3966 26.2466 71.8098 29.7626 71.2589 34.377H56.9138C57.604 30.6404 58.845 27.5633 60.5007 24.9263C62.4318 22.2894 64.3622 20.7508 66.4303 20.7508ZM93.7409 13.7177C90.9835 13.7177 88.4992 15.2563 86.4311 18.3333V13.4995L81.7409 14.5979V16.3571C82.0171 20.752 81.7409 26.0272 80.9131 31.7412L74.2926 80.9706H79.1212L81.7402 61.6292C83.4573 63.2221 85.4097 64.0574 87.3966 64.0491C90.2926 64.0491 93.1893 62.0705 95.8106 58.5546C99.2589 53.9378 101.465 47.786 102.569 39.6533C103.809 30.6428 103.258 23.8303 100.775 18.9941C98.9827 15.4769 96.6384 13.7177 93.7409 13.7177ZM86.0171 28.6629C88.363 23.389 90.7073 20.7508 93.19 20.7508C94.7073 20.7508 95.949 21.8505 96.9131 23.6085C98.568 26.6855 98.7065 31.74 97.8787 38.5525C96.9131 46.2451 94.9827 51.519 91.9475 54.5949C90.4303 56.1334 88.7754 57.0148 87.1204 57.0148C85.6032 57.0148 84.0868 55.9164 82.7065 53.7171L86.0171 28.6629ZM117.742 34.8171C114.432 32.619 112.913 30.2015 113.328 27.5645C113.604 25.5871 114.293 23.8291 115.396 22.7295C116.5 21.4116 117.604 20.752 118.844 20.752C120.914 20.752 122.982 22.2906 125.052 24.9275L126.017 26.2466L128.776 20.0925L128.087 18.9929C125.466 15.4769 122.569 13.7177 119.535 13.7177C117.189 13.7177 114.983 15.0368 112.775 17.2349C110.569 19.6524 109.19 22.7283 108.776 26.4649C108.225 30.4209 108.776 33.9369 110.707 36.5738C111.673 38.1124 113.466 39.8716 116.087 41.6283L119.81 44.926C120.499 46.2451 120.775 48.0007 120.499 50.2C120.224 52.3968 119.397 54.156 118.293 55.2545C117.189 56.5735 115.948 57.0136 114.706 57.0136C111.81 57.0136 109.328 55.035 107.258 50.6389L106.43 49.1027L103.12 55.035L103.671 56.1334C104.775 58.3327 106.292 60.0919 108.224 61.628C110.155 63.1666 112.223 64.0479 114.155 64.0479C116.638 64.0479 118.843 62.9471 120.913 60.5296C123.257 58.1121 124.775 54.8144 125.189 50.6389C125.879 46.2451 125.189 42.7268 123.534 39.8715C122.43 38.3342 120.499 36.575 117.742 34.8171Z" fill="#DD2A2A" fill-opacity="0.8"/>
<line x1="189.276" y1="0.970581" x2="189.276" y2="80.9706" stroke="#151411" stroke-opacity="0.6"/>
<path fill-rule="evenodd" clip-rule="evenodd" d="M251.046 12.0468H257.638C257.048 11.4046 255.936 10.5869 254.106 10.5869C252.782 10.5869 251.79 11.1767 251.046 12.0468ZM258.745 12.0468H265.64C264.828 11.1767 263.691 10.5869 262.102 10.5869C260.425 10.5869 259.339 11.4046 258.745 12.0468ZM250.115 13.5066H266.626C266.348 12.9389 266.016 12.446 265.64 12.0468H258.745C258.361 12.4609 258.183 12.8014 258.183 12.8014C258.183 12.8014 258.018 12.4609 257.638 12.0468H251.046C250.694 12.4612 250.381 12.9526 250.115 13.5066Z" fill="#C66017" fill-opacity="0.6"/>
<path fill-rule="evenodd" clip-rule="evenodd" d="M249.564 14.9174H267.162C267.018 14.4163 266.838 13.9433 266.626 13.508H250.115C249.896 13.962 249.715 14.4402 249.564 14.9174Z" fill="#C66017" fill-opacity="0.6"/>
<path fill-rule="evenodd" clip-rule="evenodd" d="M249.187 16.3757H267.482C267.404 15.8744 267.296 15.3857 267.161 14.9158H249.564C249.407 15.4125 249.284 15.9081 249.187 16.3757ZM248.948 17.8365H253.159C253.43 17.334 253.877 16.8801 254.608 16.8801C255.339 16.8801 255.755 17.335 255.991 17.8365H260.658C260.933 17.334 261.388 16.8801 262.132 16.8801C262.835 16.8801 263.254 17.335 263.504 17.8365H267.637C267.609 17.3442 267.557 16.8562 267.482 16.3766H249.187C249.089 16.855 249.009 17.3425 248.948 17.8365Z" fill="#C66017" fill-opacity="0.6"/>
<path fill-rule="evenodd" clip-rule="evenodd" d="M248.838 19.2463H252.758V19.1454C252.758 19.1454 252.825 18.4558 253.159 17.8369H248.949C248.852 18.6236 248.838 19.1454 248.838 19.1454V19.2463ZM256.302 19.2463H260.253V19.1454C260.253 19.1454 260.32 18.4558 260.659 17.8369H255.992C256.169 18.2197 256.276 18.6723 256.302 19.1454V19.2463H256.302ZM263.858 19.2463H267.652V19.1454C267.652 19.1454 267.683 18.6226 267.638 17.8369H263.505C263.81 18.4558 263.858 19.1454 263.858 19.1454V19.2463ZM248.837 20.7062H252.758V19.2463H248.838L248.837 20.7062ZM256.302 20.7062H260.253V19.2463H256.302V20.7062ZM263.858 20.7062H267.652V19.2463H263.858V20.7062Z" fill="#C66017" fill-opacity="0.6"/>
<path fill-rule="evenodd" clip-rule="evenodd" d="M248.834 22.1678H252.758V20.708H248.836L248.834 22.1678ZM256.301 22.1678H260.252V20.708H256.301V22.1678ZM263.857 22.1678H267.652V20.708H263.857V22.1678ZM248.832 23.5772H252.757V22.1678H248.833L248.832 23.5772ZM256.301 23.5772H260.252V22.1678H256.301V23.5772ZM263.857 23.5772H267.652V22.1678H263.857V23.5772Z" fill="#C66017" fill-opacity="0.6"/>
<path fill-rule="evenodd" clip-rule="evenodd" d="M248.831 25.0358H252.758V23.5759H248.832L248.831 25.0358ZM256.301 25.0358H260.252V23.5759H256.301V25.0358ZM263.858 25.0358H267.652V23.5759H263.858V25.0358ZM248.829 26.4452H252.758V25.0358H248.831L248.829 26.4452ZM256.301 26.4452H260.252V25.0358H256.301V26.4452ZM263.858 26.4452H267.652V25.0358H263.858V26.4452Z" fill="#C66017" fill-opacity="0.6"/>
<path fill-rule="evenodd" clip-rule="evenodd" d="M248.827 27.9062H252.758V26.4454H248.829L248.827 27.9062ZM256.302 27.9062H260.253V26.4454H256.302V27.9062ZM263.858 27.9062H267.652V26.4454H263.858V27.9062ZM248.825 29.3661H252.758V27.9062H248.827L248.825 29.3661ZM256.302 29.3661H260.253V27.9062H256.302V29.3661ZM263.858 29.3661H267.652V27.9062H263.858V29.3661Z" fill="#C66017" fill-opacity="0.6"/>
<path fill-rule="evenodd" clip-rule="evenodd" d="M248.823 30.7751H252.758V29.3657H248.825L248.823 30.7751ZM256.301 30.7751H260.252V29.3657H256.301V30.7751ZM263.858 30.7751H267.652V29.3657H263.858V30.7751Z" fill="#C66017" fill-opacity="0.6"/>
<path fill-rule="evenodd" clip-rule="evenodd" d="M248.821 32.2358H252.758V30.775H248.823L248.821 32.2358ZM256.302 32.2358H260.253V30.775H256.302V32.2358ZM263.858 32.2358H267.652V30.775H263.858V32.2358Z" fill="#C66017" fill-opacity="0.6"/>
<path fill-rule="evenodd" clip-rule="evenodd" d="M248.819 33.6951H252.759V32.2352H248.822L248.819 33.6951ZM256.302 33.6951H260.253V32.2352H256.302V33.6951ZM263.858 33.6951H267.652V32.2352H263.858V33.6951Z" fill="#C66017" fill-opacity="0.6"/>
<path fill-rule="evenodd" clip-rule="evenodd" d="M248.818 35.1048H252.759V33.6954H248.819L248.818 35.1048ZM256.302 35.1048H260.253V33.6954H256.302V35.1048ZM263.858 35.1048H267.652V33.6954H263.858V35.1048ZM248.815 36.5646H252.758V35.1048H248.817L248.815 36.5646ZM256.302 36.5646H260.253V35.1048H256.302V36.5646ZM263.858 36.5646H267.652V35.1048H263.858V36.5646ZM248.813 38.0254H252.758V36.5656H248.815L248.813 38.0254ZM256.302 38.0254H260.253V36.5656H256.302V38.0254ZM263.858 38.0254H267.652V36.5656H263.858V38.0254Z" fill="#C66017" fill-opacity="0.6"/>
<path fill-rule="evenodd" clip-rule="evenodd" d="M248.811 39.4344H252.758V38.025H248.812L248.811 39.4344ZM256.301 39.4344H260.252V38.025H256.301V39.4344ZM263.858 39.4344H267.652V38.025H263.858V39.4344ZM248.809 40.8943H252.758V39.4344H248.811L248.809 40.8943ZM256.301 40.8943H260.252V39.4344H256.301V40.8943ZM263.858 40.8943H267.652V39.4344H263.858V40.8943Z" fill="#C66017" fill-opacity="0.6"/>
<path fill-rule="evenodd" clip-rule="evenodd" d="M248.807 42.3544H252.758V40.8945H248.81L248.807 42.3544ZM256.301 42.3544H260.253V40.8945H256.301V42.3544ZM263.858 42.3544H267.652V40.8945H263.858V42.3544Z" fill="#C66017" fill-opacity="0.6"/>
<path fill-rule="evenodd" clip-rule="evenodd" d="M248.806 43.7633H252.759V42.3539H248.807L248.806 43.7633ZM256.302 43.7633H260.253V42.3539H256.302V43.7633ZM263.858 43.7633H267.652V42.3539H263.858V43.7633ZM248.804 45.2241H252.759V43.7633H248.806L248.804 45.2241ZM256.302 45.2241H260.253V43.7633H256.302V45.2241ZM263.858 45.2241H267.652V43.7633H263.858V45.2241Z" fill="#C66017" fill-opacity="0.6"/>
<path fill-rule="evenodd" clip-rule="evenodd" d="M248.801 46.6336H252.758V45.2242H248.803L248.801 46.6336ZM256.301 46.6336H260.253V45.2242H256.301V46.6336ZM263.858 46.6336H267.652V45.2242H263.858V46.6336ZM248.799 48.0944H252.758V46.6336H248.802L248.799 48.0944ZM256.301 48.0944H260.253V46.6336H256.301V48.0944ZM263.858 48.0944H267.652V46.6336H263.858V48.0944ZM248.797 49.5533H252.758V48.0944H248.799L248.797 49.5533ZM256.301 49.5533H260.253V48.0944H256.301V49.5533ZM263.858 49.5533H267.652V48.0944H263.858V49.5533Z" fill="#C66017" fill-opacity="0.6"/>
<path fill-rule="evenodd" clip-rule="evenodd" d="M248.795 50.9652H252.758V49.5538H248.797L248.795 50.9652ZM256.301 50.9652H260.253V49.5538H256.301V50.9652ZM263.858 50.9652H267.652V49.5538H263.858V50.9652ZM248.793 52.424H252.758V50.9652H248.794L248.793 52.424ZM256.301 52.424H260.253V50.9652H256.301V52.424ZM263.858 52.424H267.652V50.9652H263.858V52.424Z" fill="#C66017" fill-opacity="0.6"/>
<path fill-rule="evenodd" clip-rule="evenodd" d="M248.792 53.8842H252.758V52.4234H248.794L248.792 53.8842ZM256.302 53.8842H260.253V52.4234H256.302V53.8842ZM263.858 53.8842H267.653V52.4234H263.858V53.8842ZM248.79 55.2946H252.758V53.8852H248.792L248.79 55.2946ZM256.302 55.2946H260.253V53.8852H256.302V55.2946ZM263.858 55.2946H267.653V53.8852H263.858V55.2946Z" fill="#C66017" fill-opacity="0.6"/>
<path fill-rule="evenodd" clip-rule="evenodd" d="M248.788 56.7545H252.758V55.2936H248.789L248.788 56.7545ZM256.301 56.7545H260.253V55.2936H256.301V56.7545ZM263.858 56.7545H267.652V55.2936H263.858V56.7545Z" fill="#C66017" fill-opacity="0.6"/>
<path fill-rule="evenodd" clip-rule="evenodd" d="M248.784 58.2127H252.757V56.7538H248.786L248.784 58.2127ZM256.3 58.2127H260.252V56.7538H256.3V58.2127ZM263.857 58.2127H267.651V56.7538H263.857V58.2127ZM248.782 59.6221H252.757V58.2127H248.784L248.782 59.6221ZM256.3 59.6221H260.252V58.2127H256.3V59.6221ZM263.857 59.6221H267.651V58.2127H263.857V59.6221Z" fill="#C66017" fill-opacity="0.6"/>
<path fill-rule="evenodd" clip-rule="evenodd" d="M248.782 61.0834H252.758V59.6226H248.784L248.782 61.0834ZM256.302 61.0834H260.253V59.6226H256.302V61.0834ZM263.858 61.0834H267.652V59.6226H263.858V61.0834ZM248.781 62.5442H252.758V61.0834H248.782L248.781 62.5442ZM256.302 62.5442H260.253V61.0834H256.302V62.5442ZM263.858 62.5442H267.652V61.0834H263.858V62.5442ZM248.778 63.9536H252.758V62.5442H248.781L248.778 63.9536ZM256.302 63.9536H260.253V62.5442H256.302V63.9536ZM263.858 63.9536H267.652V62.5442H263.858V63.9536Z" fill="#C66017" fill-opacity="0.6"/>
<path fill-rule="evenodd" clip-rule="evenodd" d="M248.776 65.4118H252.758V63.9529H248.778L248.776 65.4118ZM256.301 65.4118H260.253V63.9529H256.301V65.4118ZM263.858 65.4118H267.652V63.9529H263.858V65.4118Z" fill="#C66017" fill-opacity="0.6"/>
<path d="M248.776 65.4119L248.839 19.1452C248.839 19.1452 249.058 10.5869 254.107 10.5869C257.118 10.5869 258.184 12.8014 258.184 12.8014C258.184 12.8014 259.344 10.5869 262.103 10.5869C268.155 10.5869 267.653 19.1452 267.653 19.1452V65.4119H263.859V19.1452C263.859 19.1452 263.703 16.8802 262.134 16.8802C260.473 16.8802 260.253 19.1452 260.253 19.1452V65.4119H256.302V19.1452C256.302 19.1452 256.239 16.8802 254.609 16.8802C252.978 16.8802 252.759 19.1452 252.759 19.1452V65.4119H248.776Z" fill="#C66017" fill-opacity="0.6"/>
<path fill-rule="evenodd" clip-rule="evenodd" d="M296.846 9.98273H297.363L296.846 8.52289V9.98273ZM296.846 11.493H297.9L297.363 9.98273H296.846V11.493Z" fill="#C66017" fill-opacity="0.6"/>
<path fill-rule="evenodd" clip-rule="evenodd" d="M296.846 13.0034H298.435L297.9 11.4932H296.846V13.0034ZM304.528 13.0034H308.228V11.5436H304.528V13.0034Z" fill="#C66017" fill-opacity="0.6"/>
<path fill-rule="evenodd" clip-rule="evenodd" d="M296.846 14.5145H298.972L298.435 13.0033H296.846V14.5145ZM304.528 14.5145H308.228V13.0033H304.528V14.5145Z" fill="#C66017" fill-opacity="0.6"/>
<path fill-rule="evenodd" clip-rule="evenodd" d="M296.846 15.9741H299.489L298.972 14.5142H296.846V15.9741ZM304.528 15.9741H308.228V14.5142H304.528V15.9741Z" fill="#C66017" fill-opacity="0.6"/>
<path fill-rule="evenodd" clip-rule="evenodd" d="M296.846 17.4846H300.026L299.489 15.9744H296.846V17.4846ZM304.528 17.4846H308.228V15.9744H304.528V17.4846ZM296.846 18.9949H300.562L300.026 17.4846H296.846V18.9949ZM304.528 18.9949H308.228V17.4846H304.528V18.9949Z" fill="#C66017" fill-opacity="0.6"/>
<path fill-rule="evenodd" clip-rule="evenodd" d="M296.845 20.5039H301.098L300.561 18.9946H296.845V20.5039ZM304.528 20.5039H308.228V18.9946H304.528V20.5039ZM296.845 21.9648H301.615L301.097 20.5039H296.845V21.9648H296.845ZM304.528 21.9648H308.228V20.5039H304.528V21.9648Z" fill="#C66017" fill-opacity="0.6"/>
<path fill-rule="evenodd" clip-rule="evenodd" d="M296.846 23.476H302.151L301.615 21.9658H296.846V23.476ZM304.528 23.476H308.228V21.9658H304.528V23.476ZM296.846 24.9863H302.688L302.151 23.476H296.846V24.9863ZM304.528 24.9863H308.228V23.476H304.528V24.9863Z" fill="#C66017" fill-opacity="0.6"/>
<path fill-rule="evenodd" clip-rule="evenodd" d="M296.846 26.4965H303.224L302.688 24.9853H296.846V26.4965ZM304.528 26.4965H308.228V24.9853H304.528V26.4965Z" fill="#C66017" fill-opacity="0.6"/>
<path fill-rule="evenodd" clip-rule="evenodd" d="M296.846 27.9552H303.742L303.223 26.4954H296.846V27.9552ZM304.528 27.9552H308.228V26.4954H304.528V27.9552ZM296.846 29.4655H304.277L303.742 27.9552H296.846V29.4655ZM304.528 29.4655H308.228V27.9552H304.528V29.4655Z" fill="#C66017" fill-opacity="0.6"/>
<path fill-rule="evenodd" clip-rule="evenodd" d="M296.846 30.976H308.228V29.4657H304.528V30.1719L304.277 29.4657H296.846V30.976ZM296.846 32.4863H300.482V31.1273L301.031 32.4863H308.228V30.976H296.846V32.4863Z" fill="#C66017" fill-opacity="0.6"/>
<path fill-rule="evenodd" clip-rule="evenodd" d="M296.846 33.9474H300.482V32.4875H296.846V33.9474ZM301.619 33.9474H308.228V32.4875H301.031L301.619 33.9474Z" fill="#C66017" fill-opacity="0.6"/>
<path fill-rule="evenodd" clip-rule="evenodd" d="M296.846 35.458H300.482V33.9478H296.846V35.458ZM302.228 35.458H308.228V33.9478H301.619L302.228 35.458Z" fill="#C66017" fill-opacity="0.6"/>
<path fill-rule="evenodd" clip-rule="evenodd" d="M296.846 36.9673H300.482V35.457H296.846V36.9673ZM302.838 36.9673H308.228V35.457H302.228L302.838 36.9673Z" fill="#C66017" fill-opacity="0.6"/>
<path fill-rule="evenodd" clip-rule="evenodd" d="M296.846 38.428H300.482V36.9672H296.846V38.428ZM303.426 38.428H308.228V36.9672H302.838L303.426 38.428Z" fill="#C66017" fill-opacity="0.6"/>
<path fill-rule="evenodd" clip-rule="evenodd" d="M296.846 39.9384H300.482V38.4282H296.846V39.9384ZM304.035 39.9384H308.228V38.4282H303.426L304.035 39.9384Z" fill="#C66017" fill-opacity="0.6"/>
<path fill-rule="evenodd" clip-rule="evenodd" d="M296.846 41.4486H300.482V39.9384H296.846V41.4486ZM304.644 41.4486H308.228V39.9384H304.035L304.644 41.4486ZM296.846 42.9589H300.482V41.4486H296.846V42.9589ZM304.685 42.9589H308.228V41.4486H304.644L304.684 41.5495V42.9589H304.685ZM296.846 44.4197H300.482V42.9589H296.846V44.4197ZM304.685 44.4197H308.228V42.9589H304.685V44.4197Z" fill="#C66017" fill-opacity="0.6"/>
<path fill-rule="evenodd" clip-rule="evenodd" d="M296.846 45.9282H300.482V44.418H296.846V45.9282ZM304.685 45.9282H308.228V44.418H304.685V45.9282ZM296.846 47.4385H300.482V45.9282H296.846V47.4385ZM304.685 47.4385H308.228V45.9282H304.685V47.4385Z" fill="#C66017" fill-opacity="0.6"/>
<path fill-rule="evenodd" clip-rule="evenodd" d="M296.846 48.9505H300.482V47.4382H296.846V48.9505ZM304.685 48.9505H308.228V47.4382H304.685V48.9505Z" fill="#C66017" fill-opacity="0.6"/>
<path fill-rule="evenodd" clip-rule="evenodd" d="M296.846 50.4096H300.482V48.9507H296.846V50.4096ZM304.685 50.4096H308.228V48.9507H304.685V50.4096ZM296.846 51.9218H300.482V50.4096H296.846V51.9218ZM304.685 51.9218H308.228V50.4096H304.685V51.9218Z" fill="#C66017" fill-opacity="0.6"/>
<path fill-rule="evenodd" clip-rule="evenodd" d="M296.846 53.4321H300.482V51.9218H296.846V53.4321ZM304.685 53.4321H308.228V51.9218H304.685V53.4321Z" fill="#C66017" fill-opacity="0.6"/>
<path fill-rule="evenodd" clip-rule="evenodd" d="M296.846 54.9407H300.482V53.4304H296.846V54.9407ZM304.685 54.9407H308.228V53.4304H304.685V54.9407ZM296.846 56.4015H300.482V54.9407H296.846V56.4015ZM304.685 56.4015H308.228V54.9407H304.685V56.4015Z" fill="#C66017" fill-opacity="0.6"/>
<path fill-rule="evenodd" clip-rule="evenodd" d="M296.846 57.9125H300.482V56.4022H296.846V57.9125ZM304.685 57.9125H308.228V56.4022H304.685V57.9125Z" fill="#C66017" fill-opacity="0.6"/>
<path fill-rule="evenodd" clip-rule="evenodd" d="M296.846 59.421H300.482V57.9108H296.846V59.421ZM304.685 59.421H308.228V57.9108H304.685V59.421Z" fill="#C66017" fill-opacity="0.6"/>
<path fill-rule="evenodd" clip-rule="evenodd" d="M296.846 60.932H300.482V59.4218H296.846V60.932ZM304.685 60.932H308.228V59.4218H304.685V60.932Z" fill="#C66017" fill-opacity="0.6"/>
<path fill-rule="evenodd" clip-rule="evenodd" d="M296.846 62.3927H300.482V60.9319H296.846V62.3927ZM304.685 62.3927H308.228V60.9319H304.685V62.3927ZM296.846 63.903H300.482V62.3927H296.846V63.903ZM304.685 63.903H308.228V62.3927H304.685V63.903Z" fill="#C66017" fill-opacity="0.6"/>
<path fill-rule="evenodd" clip-rule="evenodd" d="M296.846 65.4125H300.482V63.9022H296.846V65.4125ZM304.685 65.4125H308.228V63.9022H304.685V65.4125Z" fill="#C66017" fill-opacity="0.6"/>
<path d="M296.846 65.412V8.52289L304.528 30.1722V11.5434H308.228V65.412H304.685V41.5492L300.482 31.1276V65.412H296.846Z" fill="#C66017" fill-opacity="0.6"/>
<path fill-rule="evenodd" clip-rule="evenodd" d="M330.126 3.08613H333.03V0.970581C333.03 0.970581 331.861 1.60884 330.126 3.08613Z" fill="#C66017" fill-opacity="0.6"/>
<path fill-rule="evenodd" clip-rule="evenodd" d="M327.881 5.1998H333.03V3.08618H330.126C329.359 3.73885 328.61 4.44405 327.881 5.1998Z" fill="#C66017" fill-opacity="0.6"/>
<path fill-rule="evenodd" clip-rule="evenodd" d="M326.041 7.26434H333.03V5.2002H327.88C327.252 5.85234 326.638 6.54085 326.041 7.26434ZM324.418 9.37892H333.03V7.26434H326.041C325.485 7.93894 324.944 8.64422 324.418 9.37892ZM323.007 11.4935H331.633C332.49 10.8523 333.03 10.5875 333.03 10.5875V9.37892H324.419C323.933 10.0577 323.462 10.7629 323.007 11.4935Z" fill="#C66017" fill-opacity="0.6"/>
<path fill-rule="evenodd" clip-rule="evenodd" d="M321.773 13.6072H329.279C330.031 12.8129 330.817 12.1059 331.633 11.4916H323.007C322.581 12.1752 322.17 12.8807 321.773 13.6072ZM320.693 15.7218H327.499C328.067 14.9641 328.661 14.2584 329.279 13.6082H321.773C321.399 14.2938 321.039 14.9987 320.693 15.7218Z" fill="#C66017" fill-opacity="0.6"/>
<path fill-rule="evenodd" clip-rule="evenodd" d="M319.746 17.8366H326.068C326.522 17.0931 327 16.3873 327.5 15.722H320.694C320.364 16.4106 320.047 17.1158 319.746 17.8366ZM318.936 19.9008H324.919C325.282 19.1849 325.666 18.4961 326.069 17.8366H319.746C319.466 18.5011 319.197 19.1888 318.936 19.9008Z" fill="#C66017" fill-opacity="0.6"/>
<path fill-rule="evenodd" clip-rule="evenodd" d="M318.212 22.0147H323.936C324.244 21.2875 324.572 20.582 324.919 19.9001H318.936C318.682 20.5936 318.441 21.2988 318.212 22.0147ZM317.588 24.1303H323.122C323.384 23.3892 323.655 22.685 323.937 22.0157H318.213C317.994 22.7005 317.785 23.4047 317.588 24.1303Z" fill="#C66017" fill-opacity="0.6"/>
<path fill-rule="evenodd" clip-rule="evenodd" d="M317.053 26.2444H322.447C322.655 25.5263 322.88 24.8209 323.121 24.1298H317.587C317.397 24.8268 317.219 25.5319 317.053 26.2444Z" fill="#C66017" fill-opacity="0.6"/>
<path fill-rule="evenodd" clip-rule="evenodd" d="M316.604 28.3576H321.895C322.066 27.6263 322.25 26.9201 322.446 26.243H317.052C316.894 26.9317 316.744 27.6369 316.604 28.3576ZM316.24 30.4218H321.457C321.593 29.7108 321.739 29.023 321.896 28.3576H316.604C316.472 29.0404 316.35 29.7287 316.24 30.4218Z" fill="#C66017" fill-opacity="0.6"/>
<path fill-rule="evenodd" clip-rule="evenodd" d="M315.938 32.5366H321.107C321.213 31.8101 321.329 31.1049 321.457 30.422H316.24C316.128 31.1227 316.027 31.8278 315.938 32.5366ZM315.706 34.6512H320.84C320.918 33.9256 321.006 33.2214 321.107 32.5366H315.938C315.851 33.2282 315.773 33.9334 315.706 34.6512Z" fill="#C66017" fill-opacity="0.6"/>
<path fill-rule="evenodd" clip-rule="evenodd" d="M315.539 36.7655H320.654C320.705 36.0418 320.768 35.3367 320.84 34.6509H315.706C315.64 35.3536 315.584 36.0586 315.539 36.7655ZM315.429 38.88H320.54C320.567 38.1584 320.605 37.4532 320.654 36.7655H315.54C315.493 37.469 315.456 38.174 315.429 38.88ZM315.384 40.9442H320.493C320.499 40.2419 320.514 39.5532 320.54 38.881H315.429C315.405 39.5682 315.39 40.256 315.384 40.9442Z" fill="#C66017" fill-opacity="0.6"/>
<path fill-rule="evenodd" clip-rule="evenodd" d="M315.388 43.0583H320.507C320.495 42.5551 320.488 42.0516 320.488 41.548C320.488 41.3453 320.491 41.1455 320.493 40.9437H315.384C315.382 41.2279 315.377 41.5121 315.377 41.8002C315.377 42.2251 315.382 42.6441 315.388 43.0583ZM327.919 43.0583H333.03V41.8002H327.919V43.0583Z" fill="#C66017" fill-opacity="0.6"/>
<path fill-rule="evenodd" clip-rule="evenodd" d="M315.456 45.1751H320.601C320.557 44.4711 320.526 43.7653 320.508 43.0586H315.389C315.401 43.7764 315.424 44.4816 315.456 45.1751ZM327.92 45.1751H333.031V43.0586H327.92V45.1751Z" fill="#C66017" fill-opacity="0.6"/>
<path fill-rule="evenodd" clip-rule="evenodd" d="M315.579 47.2903H320.772C320.701 46.5884 320.644 45.8832 320.6 45.1757H315.456C315.487 45.8916 315.528 46.5987 315.579 47.2903ZM327.919 47.2903H333.03V45.1757H327.919V47.2903Z" fill="#C66017" fill-opacity="0.6"/>
<path fill-rule="evenodd" clip-rule="evenodd" d="M315.775 49.4036H321.029C320.929 48.7032 320.844 47.998 320.772 47.2891H315.579C315.634 48.0078 315.7 48.712 315.775 49.4036ZM327.919 49.4036H333.03V47.2891H327.919V49.4036Z" fill="#C66017" fill-opacity="0.6"/>
<path fill-rule="evenodd" clip-rule="evenodd" d="M316.04 51.5177H321.378C321.247 50.8191 321.13 50.1139 321.029 49.4031H315.775C315.853 50.1228 315.941 50.828 316.04 51.5177ZM327.919 51.5177H333.03V49.4031H327.919V51.5177Z" fill="#C66017" fill-opacity="0.6"/>
<path fill-rule="evenodd" clip-rule="evenodd" d="M316.369 53.581H321.813C321.653 52.9015 321.508 52.2133 321.378 51.5178H316.04C316.14 52.2211 316.249 52.9088 316.369 53.581ZM327.919 53.581H333.03V51.5178H327.919V53.581ZM316.786 55.6975H322.365C322.165 55.0026 321.981 54.2966 321.813 53.581H316.369C316.497 54.3027 316.636 55.0098 316.786 55.6975ZM327.919 55.6975H333.03V53.581H327.919V55.6975Z" fill="#C66017" fill-opacity="0.6"/>
<path fill-rule="evenodd" clip-rule="evenodd" d="M317.291 57.8114H323.036C322.795 57.1201 322.572 56.4148 322.364 55.6968H316.785C316.944 56.4194 317.112 57.1236 317.291 57.8114ZM327.919 57.8114H333.03V55.6968H327.919V57.8114Z" fill="#C66017" fill-opacity="0.6"/>
<path fill-rule="evenodd" clip-rule="evenodd" d="M317.891 59.9262H323.841C323.556 59.2383 323.287 58.5329 323.036 57.8116H317.291C317.48 58.5353 317.68 59.2404 317.891 59.9262ZM327.919 59.9262H333.03V57.8116H327.919V59.9262Z" fill="#C66017" fill-opacity="0.6"/>
<path fill-rule="evenodd" clip-rule="evenodd" d="M318.593 62.0402H324.804C324.464 61.3575 324.143 60.652 323.842 59.9257H317.891C318.114 60.6532 318.349 61.3564 318.593 62.0402ZM327.919 62.0402H333.03V59.9257H327.919V62.0402Z" fill="#C66017" fill-opacity="0.6"/>
<path fill-rule="evenodd" clip-rule="evenodd" d="M319.386 64.1037H325.926C325.532 63.4434 325.158 62.755 324.803 62.0405H318.592C318.842 62.742 319.107 63.4301 319.386 64.1037ZM327.919 64.1037H333.03V62.0405H327.919V64.1037Z" fill="#C66017" fill-opacity="0.6"/>
<path fill-rule="evenodd" clip-rule="evenodd" d="M320.323 66.2187H327.343C326.845 65.5588 326.372 64.8521 325.926 64.1022H319.386C319.684 64.824 319.996 65.5299 320.323 66.2187ZM327.919 66.2187H333.03V64.1022H327.919V66.2187Z" fill="#C66017" fill-opacity="0.6"/>
<path fill-rule="evenodd" clip-rule="evenodd" d="M321.4 68.3339H333.03V66.2194H327.919V66.9245C327.919 66.9245 327.703 66.6917 327.343 66.2194H320.323C320.667 66.9434 321.026 67.6487 321.4 68.3339Z" fill="#C66017" fill-opacity="0.6"/>
<path fill-rule="evenodd" clip-rule="evenodd" d="M322.638 70.448H333.029V68.3334H321.4C321.805 69.0764 322.219 69.7787 322.638 70.448Z" fill="#C66017" fill-opacity="0.6"/>
<path fill-rule="evenodd" clip-rule="evenodd" d="M324.069 72.562H333.03V70.4474H322.639C323.1 71.179 323.577 71.8843 324.069 72.562Z" fill="#C66017" fill-opacity="0.6"/>
<path fill-rule="evenodd" clip-rule="evenodd" d="M325.724 74.6769H333.03V72.5623H324.069C324.603 73.3002 325.156 74.0056 325.724 74.6769ZM327.617 76.742H333.03V74.6769H325.723C326.338 75.4035 326.97 76.0924 327.617 76.742ZM329.953 78.8566H333.03V76.742H327.618C328.457 77.581 329.248 78.2843 329.953 78.8566Z" fill="#C66017" fill-opacity="0.6"/>
<path fill-rule="evenodd" clip-rule="evenodd" d="M333.03 80.9705V78.856H329.952C331.784 80.3439 333.03 80.9705 333.03 80.9705Z" fill="#C66017" fill-opacity="0.6"/>
<path d="M333.03 41.8005V80.9697C333.03 80.9697 315.377 72.1089 315.377 41.8005C315.377 10.5871 333.03 0.970581 333.03 0.970581V10.5871C333.03 10.5871 320.488 16.7291 320.488 41.5483C320.488 58.9684 327.919 66.9233 327.919 66.9233V41.8005H333.03Z" fill="#C66017" fill-opacity="0.6"/>
<path fill-rule="evenodd" clip-rule="evenodd" d="M341.716 43.8652H345.447V43.4617H341.716V43.8652ZM349.806 43.8652H353.694V43.4617H349.806V43.8652ZM341.716 45.3241H345.447V43.8652H341.716V45.3241ZM349.806 45.3241H353.694V43.8652H349.806V45.3241Z" fill="#C66017" fill-opacity="0.6"/>
<path fill-rule="evenodd" clip-rule="evenodd" d="M341.716 46.7858H345.447V45.325H341.716V46.7858ZM349.806 46.7858H353.694V45.325H349.806V46.7858Z" fill="#C66017" fill-opacity="0.6"/>
<path fill-rule="evenodd" clip-rule="evenodd" d="M341.716 48.244H345.447V46.7852H341.716V48.244ZM349.806 48.244H353.694V46.7852H349.806V48.244ZM341.716 49.7048H345.447V48.244H341.716V49.7048ZM349.806 49.7048H353.694V48.244H349.806V49.7048Z" fill="#C66017" fill-opacity="0.6"/>
<path fill-rule="evenodd" clip-rule="evenodd" d="M341.716 51.1662H345.447V49.7054H341.716V51.1662ZM349.806 51.1662H353.694V49.7054H349.806V51.1662ZM341.716 52.6271H345.447V51.1662H341.716V52.6271ZM349.806 52.6271H353.694V51.1662H349.806V52.6271Z" fill="#C66017" fill-opacity="0.6"/>
<path fill-rule="evenodd" clip-rule="evenodd" d="M341.716 54.0846H345.447V52.6257H341.716V54.0846ZM349.806 54.0846H353.694V52.6257H349.806V54.0846ZM341.716 55.5949H345.447V54.0846H341.716V55.5949ZM349.806 55.5949H353.694V54.0846H349.806V55.5949ZM341.716 57.0557H345.447V55.5949H341.716V57.0557ZM349.806 57.0557H353.694V55.5949H349.806V57.0557Z" fill="#C66017" fill-opacity="0.6"/>
<path fill-rule="evenodd" clip-rule="evenodd" d="M341.808 58.5161H345.856C345.524 57.7809 345.447 57.0553 345.447 57.0553H341.716C341.716 57.0553 341.711 57.6441 341.808 58.5161ZM349.64 58.5161H353.629C353.674 58.0311 353.69 57.6334 353.694 57.3773V57.0553H349.806C349.806 57.0553 349.851 57.7809 349.64 58.5161ZM342.043 59.975H347.41C346.622 59.7946 346.143 59.1524 345.856 58.5161H341.808C341.857 58.9458 341.93 59.4444 342.043 59.975ZM348.313 59.975H353.421C353.524 59.4444 353.588 58.9458 353.629 58.5161H349.64C349.457 59.1524 349.081 59.7946 348.313 59.975Z" fill="#C66017" fill-opacity="0.6"/>
<path fill-rule="evenodd" clip-rule="evenodd" d="M342.441 61.4364H353.051C353.211 60.9417 353.331 60.446 353.421 59.9756H348.313C348.014 60.0452 347.709 60.0452 347.41 59.9756H342.043C342.143 60.4451 342.272 60.9417 342.441 61.4364Z" fill="#C66017" fill-opacity="0.6"/>
<path fill-rule="evenodd" clip-rule="evenodd" d="M343.078 62.8966H352.445C352.681 62.4475 352.885 61.9575 353.052 61.4358H342.442C342.62 61.9586 342.833 62.4486 343.078 62.8966ZM344.152 64.3555H351.402C351.794 63.9554 352.145 63.4636 352.445 62.8966H343.078C343.39 63.464 343.751 63.9555 344.152 64.3555Z" fill="#C66017" fill-opacity="0.6"/>
<path fill-rule="evenodd" clip-rule="evenodd" d="M351.402 64.3546H344.151C345.021 65.2256 346.199 65.8154 347.799 65.8154C349.391 65.8154 350.554 65.2266 351.402 64.3546Z" fill="#C66017" fill-opacity="0.6"/>
<path fill-rule="evenodd" clip-rule="evenodd" d="M344.132 11.6444H351.305C350.437 10.7714 349.254 10.1846 347.642 10.1846C346.11 10.1836 344.974 10.7714 344.132 11.6444ZM343.09 13.1043H352.373C352.065 12.5359 351.705 12.044 351.305 11.6444H344.132C343.742 12.0474 343.391 12.5392 343.09 13.1043Z" fill="#C66017" fill-opacity="0.6"/>
<path fill-rule="evenodd" clip-rule="evenodd" d="M342.467 14.564H352.998C352.824 14.0422 352.615 13.5526 352.373 13.1041H343.09C342.851 13.554 342.642 14.0433 342.467 14.564ZM342.07 16.0238H353.385C353.283 15.5199 353.153 15.0314 352.997 14.564H342.466C342.31 15.0325 342.177 15.5208 342.07 16.0238ZM341.829 17.4846H345.787C346.078 16.8046 346.615 16.1751 347.61 16.1751C348.622 16.1751 349.168 16.8037 349.461 17.4846H353.61C353.558 16.9897 353.483 16.5017 353.385 16.0248H342.071C341.969 16.5019 341.888 16.9896 341.829 17.4846Z" fill="#C66017" fill-opacity="0.6"/>
<path fill-rule="evenodd" clip-rule="evenodd" d="M341.719 18.9438H345.456C345.492 18.4219 345.605 17.9214 345.787 17.4839H341.829C341.75 18.1484 341.726 18.6731 341.719 18.9438ZM349.797 18.9438H353.694V18.8284C353.686 18.3773 353.657 17.9278 353.61 17.483H349.461C349.704 18.0446 349.776 18.6411 349.797 18.9438ZM341.716 20.4541H345.447V19.1446C345.447 19.1446 345.447 19.0689 345.456 18.9438H341.719C341.715 19.0728 341.716 19.1446 341.716 19.1446V20.4541ZM349.807 20.4541H353.694V18.9438H349.797C349.807 19.0689 349.807 19.1446 349.807 19.1446V20.4541H349.807Z" fill="#C66017" fill-opacity="0.6"/>
<path fill-rule="evenodd" clip-rule="evenodd" d="M341.716 21.9149H345.447V20.4541H341.716V21.9149ZM349.806 21.9149H353.694V20.4541H349.806V21.9149ZM341.716 23.3748H345.447V21.9149H341.716V23.3748ZM349.806 23.3748H353.694V21.9149H349.806V23.3748Z" fill="#C66017" fill-opacity="0.6"/>
<path fill-rule="evenodd" clip-rule="evenodd" d="M341.716 24.8342H345.447V23.3744H341.716V24.8342ZM349.806 24.8342H353.694V23.3744H349.806V24.8342ZM341.716 26.295H345.447V24.8352H341.716V26.295ZM349.806 26.295H353.694V24.8352H349.806V26.295Z" fill="#C66017" fill-opacity="0.6"/>
<path fill-rule="evenodd" clip-rule="evenodd" d="M341.716 27.7552H345.447V26.2954H341.716V27.7552ZM349.806 27.7552H353.694V26.2954H349.806V27.7552ZM341.716 29.2151H345.447V27.7552H341.716V29.2151ZM349.806 29.2151H353.694V27.7552H349.806V29.2151ZM341.716 30.6749H345.447V29.2151H341.716V30.6749ZM349.806 30.6749H353.694V29.2151H349.806V30.6749Z" fill="#C66017" fill-opacity="0.6"/>
<path fill-rule="evenodd" clip-rule="evenodd" d="M341.716 32.1342H345.447V30.6743H341.716V32.1342ZM349.806 32.1342H353.694V30.6743H349.806V32.1342Z" fill="#C66017" fill-opacity="0.6"/>
<path fill-rule="evenodd" clip-rule="evenodd" d="M341.716 33.5945H345.447V32.1337H341.716V33.5945ZM349.806 33.5945H353.694V32.1337H349.806V33.5945Z" fill="#C66017" fill-opacity="0.6"/>
<path fill-rule="evenodd" clip-rule="evenodd" d="M341.716 35.0544H345.447V33.5946H341.716V35.0544ZM349.806 35.0544H353.694V33.5946H349.806V35.0544ZM341.716 36.5153H345.447V35.0554H341.716V36.5153ZM349.806 36.5153H353.694V35.0554H349.806V36.5153ZM341.716 38.0255H345.447V36.5153H341.716V38.0255ZM349.806 38.0255H353.694V36.5153H349.806V38.0255Z" fill="#C66017" fill-opacity="0.6"/>
<path fill-rule="evenodd" clip-rule="evenodd" d="M341.716 39.4849H345.447V38.025H341.716V39.4849ZM349.806 39.4849H353.694V38.025H349.806V39.4849ZM341.716 40.9447H345.447V39.4849H341.716V40.9447ZM349.806 40.9447H353.694V39.4849H349.806V40.9447Z" fill="#C66017" fill-opacity="0.6"/>
<path fill-rule="evenodd" clip-rule="evenodd" d="M341.716 42.4045H345.447V40.9437H341.716V42.4045ZM349.806 42.4045H353.694V40.9437H349.806V42.4045ZM353.694 43.4618V42.4045H349.806V43.4618H353.694ZM345.447 42.4045H341.716V43.4618H345.447V42.4045Z" fill="#C66017" fill-opacity="0.6"/>
<path d="M345.447 57.055V19.1448C345.447 19.1448 345.447 16.1747 347.61 16.1747C349.806 16.1747 349.806 19.1448 349.806 19.1448V57.055C349.806 57.055 349.994 60.0251 347.862 60.0251C345.761 60.0251 345.447 57.055 345.447 57.055ZM341.716 57.055V19.1448C341.716 19.1448 341.653 10.183 347.642 10.183C353.944 10.183 353.694 19.1448 353.694 19.1448V57.055C353.694 57.055 353.944 65.815 347.799 65.815C341.621 65.815 341.716 57.055 341.716 57.055Z" fill="#C66017" fill-opacity="0.6"/>
<path fill-rule="evenodd" clip-rule="evenodd" d="M279.155 12.0468H286.385C285.537 11.1767 284.371 10.5869 282.766 10.5869C281.168 10.5869 280.004 11.1767 279.155 12.0468ZM278.111 13.5066H287.423C287.126 12.9383 286.775 12.446 286.384 12.0468H279.155C278.763 12.4467 278.411 12.9389 278.111 13.5066Z" fill="#C66017" fill-opacity="0.6"/>
<path fill-rule="evenodd" clip-rule="evenodd" d="M277.521 14.9174H288.007C287.846 14.4149 287.651 13.9422 287.425 13.508H278.111C277.883 13.9421 277.685 14.4147 277.521 14.9174Z" fill="#C66017" fill-opacity="0.6"/>
<path fill-rule="evenodd" clip-rule="evenodd" d="M277.145 16.3757H288.375C288.28 15.8724 288.157 15.3838 288.007 14.9158H277.521C277.369 15.3838 277.243 15.8723 277.145 16.3757ZM276.934 17.8365H281.061C281.345 17.2244 281.868 16.6279 282.829 16.6279C283.821 16.6279 284.346 17.2244 284.622 17.8365H288.576C288.533 17.3423 288.466 16.8542 288.376 16.3766H277.145C277.04 16.9131 276.974 17.4126 276.934 17.8365Z" fill="#C66017" fill-opacity="0.6"/>
<path fill-rule="evenodd" clip-rule="evenodd" d="M276.871 19.2463H280.728V19.1454C280.728 19.1454 280.761 18.482 281.06 17.8369H276.934C276.859 18.6236 276.871 19.1454 276.871 19.1454V19.2463ZM284.929 19.2463H288.629V18.8312C288.623 18.4984 288.605 18.1664 288.575 17.8369H284.621C284.913 18.482 284.929 19.1454 284.929 19.1454V19.2463ZM276.871 20.7062H280.728V19.2463H276.871V20.7062ZM284.929 20.7062H288.629V19.2463H284.929V20.7062Z" fill="#C66017" fill-opacity="0.6"/>
<path fill-rule="evenodd" clip-rule="evenodd" d="M276.871 22.1678H280.728V20.708H276.871V22.1678ZM284.93 22.1678H288.63V20.708H284.93V22.1678ZM276.871 23.5772H280.728V22.1678H276.871V23.5772ZM284.93 23.5772H288.63V22.1678H284.93V23.5772Z" fill="#C66017" fill-opacity="0.6"/>
<path fill-rule="evenodd" clip-rule="evenodd" d="M276.871 25.0358H280.728V23.5759H276.871V25.0358ZM284.93 25.0358H288.63V23.5759H284.93V25.0358ZM276.871 26.4452H280.728V25.0358H276.871V26.4452ZM284.93 26.4452H288.63V25.0358H284.93V26.4452Z" fill="#C66017" fill-opacity="0.6"/>
<path fill-rule="evenodd" clip-rule="evenodd" d="M276.871 27.9062H280.728V26.4454H276.871V27.9062ZM284.93 27.9062H288.63V26.4454H284.93V27.9062ZM276.871 29.3661H280.728V27.9062H276.871V29.3661ZM284.93 29.3661H288.63V27.9062H284.93V29.3661Z" fill="#C66017" fill-opacity="0.6"/>
<path fill-rule="evenodd" clip-rule="evenodd" d="M276.871 30.7751H280.728V29.3657H276.871V30.7751ZM284.93 30.7751H288.63V29.3657H284.93V30.7751Z" fill="#C66017" fill-opacity="0.6"/>
<path fill-rule="evenodd" clip-rule="evenodd" d="M276.871 32.2358H280.728V30.775H276.871V32.2358ZM284.93 32.2358H288.63V30.775H284.93V32.2358Z" fill="#C66017" fill-opacity="0.6"/>
<path fill-rule="evenodd" clip-rule="evenodd" d="M276.871 33.6951H280.728V32.2352H276.871V33.6951ZM284.93 33.6951H288.63V32.2352H284.93V33.6951Z" fill="#C66017" fill-opacity="0.6"/>
<path fill-rule="evenodd" clip-rule="evenodd" d="M276.871 35.1048H280.728V33.6954H276.871V35.1048ZM284.93 35.1048H288.63V33.6954H284.93V35.1048ZM276.871 36.5646H280.728V35.1048H276.871V36.5646ZM284.93 36.5646H288.63V35.1048H284.93V36.5646ZM276.871 38.0254H280.728V36.5656H276.871V38.0254ZM284.93 38.0254H288.63V36.5656H284.93V38.0254Z" fill="#C66017" fill-opacity="0.6"/>
<path fill-rule="evenodd" clip-rule="evenodd" d="M276.871 39.4344H280.728V38.025H276.871V39.4344ZM284.93 39.4344H288.63V38.025H284.93V39.4344ZM276.871 40.8943H280.728V39.4344H276.871V40.8943ZM284.93 40.8943H288.63V39.4344H284.93V40.8943Z" fill="#C66017" fill-opacity="0.6"/>
<path fill-rule="evenodd" clip-rule="evenodd" d="M276.871 42.3544H280.728V40.8945H276.871V42.3544ZM284.93 42.3544H288.63V40.8945H284.93V42.3544Z" fill="#C66017" fill-opacity="0.6"/>
<path fill-rule="evenodd" clip-rule="evenodd" d="M276.871 43.7633H280.728V42.3539H276.871V43.7633ZM284.93 43.7633H288.63V42.3539H284.93V43.7633ZM276.871 45.2241H280.728V43.7633H276.871V45.2241ZM284.93 45.2241H288.63V43.7633H284.93V45.2241Z" fill="#C66017" fill-opacity="0.6"/>
<path fill-rule="evenodd" clip-rule="evenodd" d="M276.871 46.6336H280.728V45.2242H276.871V46.6336ZM284.929 46.6336H288.629V45.2242H284.929V46.6336ZM276.871 48.0944H280.728V46.6336H276.871V48.0944ZM284.929 48.0944H288.629V46.6336H284.929V48.0944ZM272.021 49.5533H288.629V48.0944H284.929V48.4465H280.728V48.0944H276.871V48.4465H271.571L272.021 49.5533Z" fill="#C66017" fill-opacity="0.6"/>
<path fill-rule="evenodd" clip-rule="evenodd" d="M272.595 50.9652H288.63V49.5538H272.022L272.595 50.9652ZM273.188 52.424H288.63V50.9652H272.595L273.188 52.424Z" fill="#C66017" fill-opacity="0.6"/>
<path fill-rule="evenodd" clip-rule="evenodd" d="M273.782 53.884H288.63V52.4241H273.188L273.782 53.884ZM277.028 55.2943H280.665V54.4883H285.024V55.2943H288.63V53.884H273.782L273.986 54.3884H277.028V55.2943Z" fill="#C66017" fill-opacity="0.6"/>
<path fill-rule="evenodd" clip-rule="evenodd" d="M277.028 56.7545H280.665V55.2936H277.028V56.7545ZM285.024 56.7545H288.63V55.2936H285.024V56.7545Z" fill="#C66017" fill-opacity="0.6"/>
<path fill-rule="evenodd" clip-rule="evenodd" d="M277.028 58.2127H280.665V56.7538H277.028V58.2127ZM285.024 58.2127H288.63V56.7538H285.024V58.2127ZM277.028 59.6221H280.665V58.2127H277.028V59.6221ZM285.024 59.6221H288.63V58.2127H285.024V59.6221Z" fill="#C66017" fill-opacity="0.6"/>
<path fill-rule="evenodd" clip-rule="evenodd" d="M277.028 61.0834H280.665V59.6226H277.028V61.0834ZM285.024 61.0834H288.63V59.6226H285.024V61.0834ZM277.028 62.5442H280.665V61.0834H277.028V62.5442ZM285.024 62.5442H288.63V61.0834H285.024V62.5442ZM277.028 63.9536H280.665V62.5442H277.028V63.9536ZM285.024 63.9536H288.63V62.5442H285.024V63.9536Z" fill="#C66017" fill-opacity="0.6"/>
<path fill-rule="evenodd" clip-rule="evenodd" d="M277.028 65.4118H280.665V63.9529H277.028V65.4118ZM285.024 65.4118H288.63V63.9529H285.024V65.4118Z" fill="#C66017" fill-opacity="0.6"/>
<path d="M280.728 48.4467H284.929V19.1452C284.929 19.1452 284.867 16.628 282.828 16.628C280.853 16.628 280.727 19.1452 280.727 19.1452V48.4467H280.728ZM277.028 65.4119V54.3879H273.986L271.571 48.4467H276.871V19.1452C276.871 19.1452 276.683 10.5869 282.766 10.5869C288.88 10.5869 288.629 19.1452 288.629 19.1452V65.4119H285.024V54.4878H280.665V65.4119H277.028Z" fill="#C66017" fill-opacity="0.6"/>
<line x1="414.195" y1="0.970581" x2="414.195" y2="80.9706" stroke="#151411" stroke-opacity="0.6"/>
<path fill-rule="evenodd" clip-rule="evenodd" d="M513.872 70.3581C509.821 75.6638 504.47 78.8935 498.828 78.8935C485.52 78.8935 474.853 61.8202 474.853 40.8839C474.853 19.8893 485.52 2.81601 498.828 2.81601C507.652 2.81601 515.319 10.4296 519.513 21.9654C520.092 22.1963 520.526 22.4271 521.104 22.658C516.91 9.73784 508.52 0.970764 498.828 0.970764C484.941 0.970764 473.695 18.7358 473.695 40.8839C473.695 62.9754 484.942 80.9704 498.828 80.9704C505.337 80.9704 511.268 76.8182 515.752 70.3581H513.872Z" fill="#151411" fill-opacity="0.6"/>
<path fill-rule="evenodd" clip-rule="evenodd" d="M502.011 68.5134H567.645V52.8245H502.011V68.5134Z" fill="#151411" fill-opacity="0.6"/>
<path fill-rule="evenodd" clip-rule="evenodd" d="M505.337 24.7329L505.048 26.8099H501.865C500.997 41.5762 500.419 53.5145 499.841 59.0528C498.539 68.9734 492.753 74.51 488.992 74.51C487.69 74.51 486.099 73.5882 486.099 71.0504C486.099 69.666 486.822 68.5125 487.69 68.5125C488.992 68.5125 490.005 70.1269 490.728 71.9721C492.753 70.1269 493.042 68.5125 493.91 62.0516C494.344 59.0528 495.501 37.6531 496.08 26.8099H493.476L493.765 24.7329H496.369L496.659 21.0424C498.105 7.43048 504.325 5.81525 506.64 5.81525C507.797 5.81525 510.111 6.73787 510.111 9.27573C510.111 10.8901 509.243 11.5827 508.375 11.5827C506.784 11.5827 506.061 10.1984 505.337 8.12138C502.733 9.96748 502.3 20.1189 502.01 24.732H505.337V24.7329ZM505.048 43.6514C505.048 32.8091 509.388 23.3494 516.765 23.3494C521.394 23.3494 523.997 26.5799 523.997 33.7317C523.997 44.5749 519.658 53.7462 512.28 53.7462C507.652 53.7462 505.048 50.5157 505.048 43.6514ZM518.067 35.3469C518.067 32.5782 517.922 25.8881 515.319 25.8881C511.558 25.8881 510.979 37.6539 510.979 42.0379C510.979 44.5758 511.124 51.4401 513.727 51.4401C517.488 51.4392 518.067 39.7301 518.067 35.3469ZM525.589 43.6514C525.589 32.8091 530.073 23.3494 537.45 23.3494C541.934 23.3494 544.646 26.5799 544.646 33.7317C544.646 44.5749 540.198 53.7462 532.821 53.7462C528.337 53.7462 525.589 50.5157 525.589 43.6514ZM538.752 35.3469C538.752 32.5782 538.607 25.8881 536.004 25.8881C532.098 25.8881 531.664 37.6539 531.664 42.0379C531.664 44.5758 531.664 51.4401 534.268 51.4401C538.173 51.4392 538.752 39.7301 538.752 35.3469ZM567.067 50.2857C564.463 52.131 561.281 53.7454 559.112 53.7454C557.955 53.7454 558.098 50.9758 558.098 49.8231C558.098 48.4405 558.098 46.5927 558.388 42.9605L558.243 42.7288C556.797 47.5161 553.904 53.7454 550.143 53.7454C547.25 53.7454 545.948 48.9005 545.948 44.8058C545.948 34.6535 551.01 23.8111 558.243 23.8111H559.69C560.269 16.6584 560.269 13.6597 560.269 11.3519C560.269 10.6601 560.269 9.96749 559.834 9.96749C559.4 9.96749 558.822 10.1984 557.375 10.8901L557.086 9.04486C559.98 7.43048 563.162 6.507 566.054 6.27613C566.344 6.27613 566.488 6.27613 566.488 7.19875C566.488 13.1971 563.595 44.574 563.595 47.7479C563.595 48.4405 563.595 49.5931 564.174 49.5931C564.463 49.5931 565.476 49.1305 566.633 48.4396L567.067 50.2857ZM557.664 40.4227C558.677 36.5004 558.966 32.5782 559.545 26.5799C559.255 26.3481 558.966 26.3481 558.822 26.3481C554.338 26.3481 552.167 36.9613 552.167 42.7288C552.167 44.1132 552.313 47.5161 553.614 47.5161C555.495 47.517 557.086 42.7297 557.664 40.4227Z" fill="#297B0E" fill-opacity="0.6"/>
<path fill-rule="evenodd" clip-rule="evenodd" d="M505.916 56.5147H507.507L509.532 61.3595V56.5147H510.834V65.7426H509.677L507.217 60.4378V65.7426H505.916V56.5147ZM514.594 56.5147H519.079V58.3608H516.33V59.9743H518.067V62.0513H516.33V63.6657H519.079V65.7426H514.594V56.5147ZM523.853 58.3608H522.262V56.5147H527.179V58.3608H525.588V65.7426H523.853V58.3608ZM530.073 56.5147H531.807L532.532 61.3595H532.675L533.399 56.5147H534.846L535.569 61.3595H535.714L536.437 56.5147H537.738L536.292 65.7426H534.846L533.978 60.6669L533.11 65.7426H531.664L530.073 56.5147ZM543.633 65.9744C541.934 65.9744 540.777 64.1291 540.777 61.1287C540.777 58.1299 541.933 56.2838 543.633 56.2838C545.37 56.2838 546.381 58.1291 546.381 61.1287C546.381 64.1283 545.369 65.9744 543.633 65.9744ZM542.621 61.1278C542.621 63.6657 543.055 64.1283 543.633 64.1283C544.212 64.1283 544.645 63.6657 544.645 61.1278C544.645 58.5917 544.212 58.1291 543.633 58.1291C542.91 58.1291 542.621 58.8217 542.621 61.1278ZM549.853 56.5147H552.746C554.626 56.5147 555.06 57.8973 555.06 59.0525C555.06 60.206 554.626 61.1278 553.903 61.3595L555.06 65.7426H553.18L552.312 61.8204H551.589V65.7426H549.853V56.5147ZM551.589 60.206H552.457C552.89 60.206 553.325 59.7434 553.325 59.2826C553.325 58.5917 553.035 58.1291 552.457 58.1291H551.589V60.206ZM558.677 56.5147H560.413V60.206L562.148 56.5147H563.739L562.293 59.5134L564.028 65.7426H562.293L561.136 61.8204L560.413 63.4365V65.7426H558.677V56.5147Z" fill="white"/>
</svg>
