<svg width="56" height="52" viewBox="0 0 56 52" fill="none" xmlns="http://www.w3.org/2000/svg">
<path d="M51.706 12.5201C49.9246 13.2377 48.0355 13.709 46.1012 13.9183C48.1399 12.8079 49.6659 11.0602 50.3945 9.00107C48.4812 10.0381 46.3834 10.7648 44.1972 11.1579C42.7286 9.72693 40.7821 8.77787 38.6602 8.4583C36.5381 8.13876 34.3597 8.46661 32.4635 9.39091C30.5671 10.3152 29.0593 11.7841 28.1745 13.5694C27.2895 15.3546 27.0769 17.3561 27.5699 19.2627C23.6898 19.0856 19.894 18.1673 16.4289 16.5675C12.9637 14.9677 9.90682 12.7221 7.45651 9.97644C6.58918 11.3331 6.1334 12.8754 6.13586 14.4453C6.13586 17.5266 7.85786 20.2487 10.4759 21.8424C8.92654 21.798 7.41132 21.417 6.05651 20.7311V20.8416C6.05698 22.8937 6.8367 24.8825 8.2635 26.4707C9.69026 28.0591 11.6763 29.1492 13.8849 29.5562C12.4466 29.9112 10.9386 29.9634 9.47486 29.7092C10.0975 31.4756 11.3112 33.0204 12.9459 34.1273C14.5806 35.2343 16.5545 35.8478 18.5912 35.8822C16.567 37.3301 14.2493 38.4004 11.7706 39.032C9.29188 39.6634 6.70082 39.8439 4.14551 39.5629C8.60613 42.1754 13.7987 43.5623 19.1022 43.5578C37.0525 43.5578 46.869 30.0152 46.869 18.2703C46.869 17.8878 46.8572 17.5011 46.8385 17.1228C48.7492 15.8652 50.3984 14.3072 51.7082 12.5222L51.706 12.5201Z" fill="#379E23"/>
</svg>
